<svg width="155" height="77" viewBox="0 0 155 77" fill="none" xmlns="http://www.w3.org/2000/svg">
<path d="M74.0341 58.1639C73.0621 58.4509 71.9801 58.3669 71.0191 57.8449L40.2591 41.0789C38.3371 40.0329 37.6271 37.6279 38.6731 35.7069C39.7181 33.7859 42.1241 33.0749 44.0451 34.1209L74.8051 50.8859C76.7271 51.9319 77.4371 54.3369 76.3911 56.2579C75.8691 57.2189 75.0061 57.8769 74.0341 58.1639Z" fill="#333333"/>
<path d="M55.6651 46.0889C55.8711 45.2299 56.3271 44.4369 57.0751 43.8339C57.5621 43.2069 58.1081 42.6259 58.7051 42.0959L44.0451 34.1209C42.1241 33.0759 39.7181 33.7859 38.6731 35.7069C37.6271 37.6289 38.3381 40.0339 40.2591 41.0789L54.6481 48.9069C54.8761 47.9289 55.2221 46.9849 55.6651 46.0889Z" fill="#1A1A1A"/>
<path d="M74.8051 50.8859L60.9281 43.3359C60.6001 44.5469 60.1011 45.7029 59.4471 46.7699C59.2151 47.3589 58.8421 47.8949 58.3281 48.3409C57.8191 48.9489 57.2581 49.5139 56.6411 50.0219L71.0181 57.8439C71.9791 58.3659 73.0601 58.4499 74.0331 58.1629C75.0051 57.8759 75.8681 57.2179 76.3901 56.2569C77.4371 54.3359 76.7271 51.9309 74.8051 50.8859Z" fill="#1A1A1A"/>
<path d="M116.175 45.5329C115.691 46.4229 114.866 47.1289 113.818 47.4389L79.0881 57.6949C76.9901 58.3139 74.7871 57.1159 74.1681 55.0179C73.5491 52.9199 74.7471 50.7169 76.8451 50.0969L111.575 39.8409C113.673 39.2219 115.876 40.4199 116.495 42.5179C116.804 43.5669 116.66 44.6419 116.175 45.5329Z" fill="#333333"/>
<path d="M93.5241 50.3439C93.0621 49.5909 92.8231 48.7079 92.9261 47.7529C92.8271 46.9649 92.8021 46.1688 92.8501 45.3708L76.8451 50.0979C74.7471 50.7169 73.5491 52.9208 74.1681 55.0188C74.7881 57.1168 76.9901 58.3148 79.0881 57.6958L94.7981 53.0569C94.2671 52.2029 93.8451 51.2909 93.5241 50.3439Z" fill="#1A1A1A"/>
<path d="M111.574 39.8409L96.4232 44.3149C97.0482 45.4029 97.5122 46.5739 97.8042 47.7899C98.0562 48.3709 98.1721 49.0139 98.1241 49.6919C98.1941 50.4819 98.1971 51.2789 98.1201 52.0739L113.817 47.4389C114.866 47.1289 115.69 46.4229 116.174 45.5329C116.658 44.6429 116.803 43.5669 116.493 42.5179C115.875 40.4199 113.672 39.2219 111.574 39.8409Z" fill="#1A1A1A"/>
<path d="M52.4365 48.7702C60.7399 38.442 59.0984 23.3381 48.7702 15.0346C38.442 6.73125 23.338 8.3727 15.0346 18.7009C6.73124 29.0292 8.37269 44.1331 18.7009 52.4365C29.0292 60.7399 44.1331 59.0985 52.4365 48.7702Z" fill="#FF605A"/>
<path opacity="0.3" d="M50.4901 16.5619C51.5011 18.2329 52.3141 20.0509 52.8881 21.9949C56.5551 34.4139 49.2521 47.8379 36.8331 51.5049C27.7151 54.1969 18.0611 50.9719 12.1191 44.1549C17.1291 54.5689 29.0821 60.1189 40.5241 56.7399C53.2331 52.9869 60.4931 39.6419 56.7411 26.9329C55.5341 22.8509 53.3351 19.3359 50.4901 16.5619Z" fill="#FF605A"/>
<path opacity="0.3" d="M52.9957 44.2139C58.786 33.5712 54.8523 20.2496 44.2096 14.4594C33.5669 8.66911 20.2453 12.6028 14.4551 23.2455C8.66481 33.8882 12.5985 47.2098 23.2412 53C33.8839 58.7903 47.2055 54.8566 52.9957 44.2139Z" fill="white"/>
<path opacity="0.5" d="M17.1001 44.3569C13.4331 31.9379 20.7361 18.5139 33.1551 14.8469C34.3651 14.4899 35.5841 14.2399 36.8031 14.0849C33.9811 13.6409 31.0181 13.7989 28.0961 14.6619C17.5661 17.7719 11.5501 28.8289 14.6591 39.3589C15.2561 41.3809 16.1491 43.2349 17.2721 44.8909C17.2161 44.7129 17.1541 44.5379 17.1001 44.3569Z" fill="white"/>
<path d="M36.6175 42.9159C35.0112 43.3902 33.4579 43.513 31.9575 43.2844C30.4777 43.0497 29.109 42.547 27.8516 41.7765C26.6087 40.9793 25.5353 39.9977 24.6313 38.8317C23.7212 37.6452 23.0594 36.3517 22.6459 34.9513C22.2141 33.4892 22.0714 32.0201 22.2177 30.544C22.3784 29.0413 22.7805 27.6352 23.4237 26.3258C24.0815 24.9897 24.9709 23.8315 26.092 22.8512C27.2275 21.8443 28.5778 21.1097 30.1429 20.6476C31.7286 20.1794 33.2644 20.0729 34.7503 20.3282C36.2568 20.5774 37.6315 21.1007 38.8744 21.8979C40.1173 22.6951 41.1908 23.6767 42.0948 24.8427C42.9988 26.0086 43.6575 27.2918 44.071 28.6922C44.4967 30.1337 44.6394 31.6028 44.4993 33.0995C44.353 34.5756 43.951 35.9816 43.2932 37.3177C42.6499 38.6271 41.7575 39.775 40.6159 40.7614C39.4948 41.7417 38.162 42.4598 36.6175 42.9159ZM26.9705 33.6744C27.2502 34.6217 27.665 35.4955 28.2148 36.2959C28.7645 37.0963 29.4105 37.7675 30.1527 38.3096C30.9094 38.825 31.7398 39.1731 32.644 39.3539C33.5627 39.508 34.5265 39.4361 35.5356 39.1382C36.5653 38.8341 37.4209 38.3576 38.1024 37.7086C38.7779 37.039 39.2799 36.275 39.6086 35.4167C39.9312 34.5379 40.0987 33.6264 40.111 32.6825C40.1379 31.7118 40.0205 30.7837 39.7591 29.8982C39.4793 28.9509 39.0573 28.0904 38.493 27.3167C37.9433 26.5163 37.29 25.8584 36.5333 25.343C35.7912 24.8009 34.9607 24.4528 34.0421 24.2987C33.1379 24.1179 32.1916 24.1734 31.2031 24.4653C30.1528 24.7754 29.2899 25.2653 28.6145 25.9349C27.9536 26.5779 27.4587 27.3285 27.1301 28.1867C26.8014 29.045 26.6206 29.9492 26.5877 30.8992C26.5753 31.8432 26.703 32.7683 26.9705 33.6744Z" fill="white"/>
<path d="M133.255 62.2081C145.118 56.3019 149.947 41.8973 144.041 30.0345C138.134 18.1718 123.73 13.343 111.867 19.2492C100.004 25.1554 95.1755 39.56 101.082 51.4228C106.988 63.2856 121.392 68.1143 133.255 62.2081Z" fill="#FF605A"/>
<path opacity="0.3" d="M139.319 23.5608C140.33 25.2318 141.143 27.0498 141.717 28.9938C145.384 41.4128 138.081 54.8368 125.662 58.5038C116.544 61.1958 106.89 57.9708 100.948 51.1538C105.958 61.5668 117.911 67.1178 129.353 63.7388C142.062 59.9858 149.323 46.6408 145.57 33.9318C144.364 29.8508 142.165 26.3348 139.319 23.5608Z" fill="#FF605A"/>
<path opacity="0.3" d="M141.697 51.4525C147.619 40.8825 143.852 27.5128 133.282 21.5905C122.712 15.6682 109.342 19.4359 103.42 30.006C97.4973 40.576 101.265 53.9456 111.835 59.8679C122.405 65.7903 135.775 62.0226 141.697 51.4525Z" fill="white"/>
<path opacity="0.5" d="M105.93 51.3569C102.263 38.9379 109.566 25.5139 121.985 21.8469C123.195 21.4899 124.414 21.2399 125.633 21.0849C122.811 20.6409 119.848 20.7989 116.926 21.6619C106.396 24.7719 100.38 35.8289 103.489 46.3599C104.086 48.3819 104.979 50.2359 106.102 51.8919C106.046 51.7129 105.983 51.5369 105.93 51.3569Z" fill="white"/>
<path d="M125.446 49.9143C123.84 50.3886 122.287 50.5114 120.786 50.2828C119.307 50.0481 117.938 49.5455 116.681 48.7749C115.438 47.9777 114.364 46.9961 113.46 45.8301C112.55 44.6436 111.888 43.3501 111.475 41.9498C111.043 40.4876 110.9 39.0185 111.047 37.5424C111.207 36.0397 111.609 34.6336 112.253 33.3242C112.91 31.9881 113.8 30.83 114.921 29.8497C116.056 28.8427 117.407 28.1081 118.972 27.646C120.558 27.1778 122.093 27.0713 123.579 27.3266C125.086 27.5759 126.46 28.0991 127.703 28.8963C128.946 29.6935 130.02 30.6751 130.924 31.8411C131.828 33.0071 132.487 34.2902 132.9 35.6906C133.326 37.1321 133.468 38.6012 133.328 40.0979C133.182 41.574 132.78 42.9801 132.122 44.3161C131.479 45.6255 130.586 46.7734 129.445 47.7598C128.324 48.7401 126.991 49.4583 125.446 49.9143ZM115.799 40.6728C116.079 41.6201 116.494 42.4939 117.044 43.2943C117.594 44.0947 118.239 44.7659 118.982 45.308C119.738 45.8234 120.569 46.1715 121.473 46.3523C122.392 46.5065 123.356 46.4345 124.365 46.1366C125.394 45.8325 126.25 45.356 126.931 44.707C127.607 44.0374 128.109 43.2734 128.438 42.4152C128.76 41.5363 128.928 40.6249 128.94 39.6809C128.967 38.7102 128.85 37.7821 128.588 36.8966C128.308 35.9493 127.886 35.0888 127.322 34.3151C126.772 33.5147 126.119 32.8568 125.362 32.3414C124.62 31.7993 123.79 31.4512 122.871 31.2971C121.967 31.1163 121.021 31.1719 120.032 31.4637C118.982 31.7738 118.119 32.2637 117.443 32.9333C116.783 33.5763 116.288 34.3269 115.959 35.1852C115.63 36.0434 115.45 36.9476 115.417 37.8977C115.404 38.8416 115.532 39.7667 115.799 40.6728Z" fill="white"/>
<path d="M91.1053 60.6391C94.4343 52.0229 90.1481 42.3394 81.5319 39.0103C72.9157 35.6813 63.2321 39.9675 59.9031 48.5837C56.5741 57.2 60.8603 66.8835 69.4765 70.2125C78.0928 73.5415 87.7763 69.2554 91.1053 60.6391Z" fill="#1ED5DA"/>
<path opacity="0.3" d="M87.1901 42.6559C87.8941 43.8209 88.4611 45.0879 88.8611 46.4429C91.4171 55.0999 86.3271 64.4569 77.6701 67.0139C71.3141 68.8909 64.5851 66.6419 60.4431 61.8909C63.9351 69.1499 72.2671 73.0189 80.2431 70.6639C89.1021 68.0479 94.1631 58.7459 91.5471 49.8869C90.7061 47.0399 89.1731 44.5889 87.1901 42.6559Z" fill="#1ED5DA"/>
<path opacity="0.3" d="M90.4212 58.0035C92.2868 49.7665 87.1218 41.5768 78.8849 39.7112C70.648 37.8456 62.4582 43.0105 60.5926 51.2475C58.727 59.4844 63.892 67.6741 72.1289 69.5397C80.3658 71.4054 88.5556 66.2404 90.4212 58.0035Z" fill="white"/>
<path opacity="0.5" d="M63.9151 62.0308C61.3591 53.3738 66.4491 44.0168 75.1061 41.4598C75.9491 41.2108 76.7991 41.0368 77.6491 40.9288C75.6821 40.6198 73.6171 40.7288 71.5801 41.3308C64.2401 43.4988 60.0461 51.2058 62.2141 58.5468C62.6301 59.9568 63.2521 61.2488 64.0351 62.4028C63.9961 62.2788 63.9521 62.1568 63.9151 62.0308Z" fill="white"/>
<path d="M68.5401 55.2264C68.2645 54.2934 68.1605 53.3331 68.2278 52.3456C68.3053 51.3395 68.559 50.3751 68.9888 49.4522C69.4143 48.515 70.03 47.6934 70.836 46.9872C71.6376 46.2667 72.6342 45.7305 73.8256 45.3787C75.2324 44.9633 76.5365 44.9138 77.738 45.2301C78.9538 45.5422 79.9591 46.1193 80.754 46.9614L78.9357 49.2072C78.5078 48.7093 78.0369 48.3568 77.5232 48.1495C77.0052 47.9279 76.4902 47.8225 75.9784 47.8331C75.4623 47.8295 74.9745 47.8955 74.5152 48.0311C73.7687 48.2515 73.1601 48.5951 72.6893 49.0618C72.2328 49.5244 71.89 50.0548 71.6609 50.653C71.4318 51.2513 71.3129 51.8794 71.3043 52.5374C71.3101 53.1912 71.402 53.8195 71.58 54.4225C71.7792 55.0971 72.0797 55.7185 72.4816 56.2865C72.8792 56.8402 73.3438 57.3038 73.8755 57.6775C74.4173 58.0325 75.0033 58.273 75.6336 58.3991C76.274 58.5065 76.9243 58.4627 77.5846 58.2677C78.0584 58.1279 78.5159 57.9069 78.9574 57.6049C79.3988 57.3029 79.7768 56.9182 80.0914 56.4507C80.4059 55.9833 80.5975 55.4429 80.6661 54.8296L83.5125 55.5108C83.4357 56.3606 83.1312 57.1528 82.599 57.8874C82.0812 58.6177 81.4391 59.2443 80.6727 59.7671C79.9063 60.2899 79.1068 60.6743 78.2742 60.9201C77.1832 61.2422 76.1199 61.3143 75.0841 61.1364C74.0441 60.944 73.0837 60.5722 72.203 60.0207C71.3324 59.4506 70.5727 58.7541 69.924 57.9313C69.2854 57.0898 68.8241 56.1882 68.5401 55.2264Z" fill="white"/>
</svg>
