<svg width="76" height="118" viewBox="0 0 76 118" fill="none" xmlns="http://www.w3.org/2000/svg">
<path d="M33.7422 72.8203C32.7752 72.2203 32.0382 71.2513 31.7582 70.0563L22.4952 30.4803C21.9352 28.0893 23.4202 25.6983 25.8112 25.1383C28.2012 24.5793 30.5932 26.0633 31.1532 28.4543L40.4162 68.0293C40.9752 70.4203 39.4912 72.8123 37.1002 73.3713C35.9042 73.6513 34.7082 73.4203 33.7422 72.8203Z" fill="#333333"/>
<path d="M29.8052 47.1283C30.6782 46.6593 31.6842 46.4483 32.7472 46.6243C33.6362 46.5643 34.5302 46.5873 35.4202 46.6913L31.1512 28.4533C30.5922 26.0633 28.2002 24.5783 25.8092 25.1373C23.4182 25.6973 21.9342 28.0883 22.4932 30.4793L26.6832 48.3803C27.6742 47.8423 28.7232 47.4273 29.8052 47.1283Z" fill="#1A1A1A"/>
<path d="M40.4152 68.0293L36.3742 50.7653C35.1142 51.3953 33.7732 51.8403 32.3912 52.0893C31.7242 52.3343 30.9962 52.4233 30.2392 52.3253C29.3502 52.3533 28.4562 52.3053 27.5712 52.1683L31.7572 70.0553C32.0372 71.2503 32.7752 72.2193 33.7412 72.8193C34.7082 73.4193 35.9042 73.6503 37.0992 73.3703C39.4902 72.8113 40.9742 70.4203 40.4152 68.0293Z" fill="#1A1A1A"/>
<path d="M52.8218 103.989C65.5521 96.2982 69.6371 79.7433 61.946 67.013C54.2549 54.2827 37.7 50.1977 24.9697 57.8888C12.2394 65.5799 8.15439 82.1348 15.8455 94.8651C23.5366 107.595 40.0915 111.68 52.8218 103.989Z" fill="#FF605A"/>
<path opacity="0.3" d="M65.6261 77.6552C65.3411 79.8282 64.7801 81.9922 63.9211 84.0992C58.4321 97.5572 42.6211 104.207 29.1631 98.7182C19.2831 94.6882 13.0791 85.0942 12.6471 74.9532C9.7401 87.5932 16.3301 100.837 28.7291 105.894C42.5011 111.511 58.2201 104.9 63.8371 91.1282C65.6401 86.7042 66.1771 82.0812 65.6261 77.6552Z" fill="#FF605A"/>
<path opacity="0.3" d="M58.978 95.2412C66.8586 84.1581 64.2624 68.785 53.1793 60.9044C42.0962 53.0239 26.7231 55.62 18.8425 66.7031C10.962 77.7862 13.5581 93.1593 24.6412 101.04C35.7244 108.92 51.0974 106.324 58.978 95.2412Z" fill="white"/>
<path opacity="0.5" d="M16.8731 78.6223C22.3621 65.1643 38.1731 58.5143 51.6311 64.0033C52.9421 64.5383 54.1861 65.1733 55.3631 65.8923C53.2001 63.5253 50.4921 61.5873 47.3261 60.2953C35.9151 55.6413 22.8912 61.1193 18.2372 72.5303C17.3432 74.7213 16.8271 76.9723 16.6501 79.2113C16.7251 79.0153 16.7931 78.8173 16.8731 78.6223Z" fill="white"/>
<path d="M34.8218 91.3471C33.0813 90.6371 31.6335 89.6561 30.4785 88.4041C29.3458 87.1612 28.4983 85.7614 27.9361 84.2047C27.4053 82.6347 27.1523 81.0219 27.177 79.3663C27.2108 77.6883 27.5372 76.0906 28.1562 74.5733C28.8024 72.989 29.7069 71.6011 30.8697 70.4097C32.0638 69.2051 33.4017 68.2542 34.8832 67.5573C36.3962 66.8471 37.9876 66.4551 39.6573 66.3815C41.3585 66.2946 43.057 66.5971 44.7529 67.2889C46.4711 67.9898 47.892 68.9728 49.0156 70.238C50.1615 71.5123 50.9998 72.9344 51.5306 74.5044C52.0614 76.0743 52.3145 77.6871 52.2898 79.3428C52.2651 80.9984 51.9432 82.5849 51.3243 84.1023C50.6871 85.6643 49.7826 87.0521 48.6108 88.2659C47.448 89.4573 46.1102 90.4081 44.5972 91.1183C43.1156 91.8153 41.5288 92.1961 39.8367 92.2606C38.167 92.3343 36.4953 92.0297 34.8218 91.3471ZM32.8421 76.4848C32.4234 77.5113 32.1745 78.568 32.0955 79.6549C32.0165 80.7418 32.1123 81.783 32.383 82.7783C32.6851 83.7604 33.1691 84.6476 33.835 85.4398C34.5323 86.2187 35.4276 86.8312 36.521 87.2772C37.6367 87.7324 38.7207 87.9143 39.773 87.823C40.8344 87.7094 41.8099 87.3916 42.6996 86.8696C43.5983 86.3253 44.3839 85.6437 45.0563 84.8248C45.7601 83.9928 46.3077 83.097 46.6991 82.1375C47.1178 81.111 47.351 80.0609 47.3986 78.9872C47.4776 77.9003 47.366 76.8657 47.0639 75.8836C46.7933 74.8883 46.3093 74.0011 45.612 73.2222C44.9461 72.43 44.0776 71.8154 43.0065 71.3785C41.8685 70.9143 40.7688 70.739 39.7074 70.8526C38.6774 70.953 37.7176 71.2642 36.828 71.7862C35.9383 72.3082 35.1461 72.9741 34.4514 73.7838C33.7791 74.6027 33.2426 75.503 32.8421 76.4848Z" fill="white"/>
<path d="M40.1781 39.4401C47.303 31.9078 46.9726 20.0257 39.4403 12.9008C31.9079 5.77583 20.0258 6.10613 12.9009 13.6385C5.77596 21.1709 6.10627 33.053 13.6387 40.1779C21.171 47.3028 33.0531 46.9725 40.1781 39.4401Z" fill="#1ED5DA"/>
<path opacity="0.3" d="M45.1881 24.4863C44.9691 25.9983 44.5581 27.5013 43.9391 28.9613C39.9871 38.2903 28.9051 42.7773 19.5761 38.8263C12.7271 35.9253 8.49314 29.1803 8.28714 22.1083C6.14314 30.8913 10.6121 40.1833 19.2071 43.8243C28.7541 47.8683 39.7711 43.4073 43.8151 33.8603C45.1141 30.7933 45.5311 27.5763 45.1881 24.4863Z" fill="#1ED5DA"/>
<path opacity="0.3" d="M33.2396 42.3312C41.9673 38.6314 46.0432 28.5569 42.3434 19.8292C38.6436 11.1015 28.5691 7.02563 19.8414 10.7255C11.1137 14.4253 7.03781 24.4998 10.7376 33.2275C14.4374 41.9552 24.5119 46.0311 33.2396 42.3312Z" fill="white"/>
<path opacity="0.5" d="M11.1991 24.7043C15.1511 15.3753 26.2331 10.8883 35.5621 14.8393C36.4711 15.2243 37.3321 15.6793 38.1461 16.1913C36.6601 14.5213 34.7911 13.1453 32.5961 12.2153C24.6861 8.8643 15.5571 12.5613 12.2071 20.4713C11.5641 21.9903 11.1821 23.5543 11.0391 25.1133C11.0921 24.9773 11.1411 24.8403 11.1991 24.7043Z" fill="white"/>
<path d="M19.8504 22.5001C20.2763 21.4946 20.8702 20.5877 21.6321 19.7793C22.4161 18.9621 23.3232 18.3064 24.3535 17.8123C25.3902 17.3028 26.5096 17.0289 27.7116 16.9907C28.9202 16.937 30.1664 17.1821 31.4503 17.7259C32.9662 18.3679 34.1324 19.2541 34.949 20.3844C35.781 21.5213 36.2417 22.738 36.331 24.0347L33.1541 24.6868C33.1377 23.9501 32.9806 23.3089 32.6827 22.7631C32.3914 22.2019 32.0199 21.7435 31.5684 21.3881C31.1235 21.0172 30.6535 20.727 30.1585 20.5173C29.3542 20.1766 28.5816 20.0409 27.8407 20.1103C27.1153 20.1861 26.4401 20.4019 25.8152 20.7575C25.1903 21.1131 24.6397 21.5731 24.1634 22.1376C23.7026 22.7087 23.3346 23.319 23.0595 23.9687C22.7516 24.6957 22.5695 25.4487 22.5132 26.2276C22.4635 26.991 22.5361 27.7241 22.731 28.4269C22.948 29.1209 23.2848 29.747 23.7416 30.3053C24.2204 30.8547 24.8155 31.2801 25.5271 31.5815C26.0375 31.7977 26.5918 31.9321 27.1898 31.9847C27.7878 32.0373 28.3897 31.973 28.9955 31.7917C29.6013 31.6105 30.1525 31.2784 30.6489 30.7954L32.6321 33.4141C31.96 34.0963 31.1315 34.5664 30.1466 34.8242C29.1772 35.0886 28.1739 35.1745 27.1368 35.0819C26.0996 34.9892 25.1325 34.7529 24.2353 34.3729C23.0597 33.875 22.0862 33.1799 21.3148 32.2876C20.5499 31.3799 19.9821 30.3731 19.6112 29.2674C19.2623 28.1527 19.0998 27.0075 19.1234 25.8317C19.1691 24.647 19.4114 23.5365 19.8504 22.5001Z" fill="white"/>
</svg>
