<svg width="162" height="78" viewBox="0 0 162 78" fill="none" xmlns="http://www.w3.org/2000/svg">
<path d="M100.11 45.0505C99.543 45.6325 98.7532 45.999 97.8762 46.0104L65.4183 46.4375C63.6642 46.4603 62.2232 45.0578 62.2004 43.3037C62.1776 41.5496 63.581 40.1092 65.3342 40.0858L97.7912 39.6582C99.5453 39.6353 100.986 41.0387 101.009 42.792C101.023 43.6692 100.677 44.4685 100.11 45.0505Z" fill="#333333"/>
<path d="M78.1593 43.8951C77.9667 43.2138 77.9732 42.48 78.2605 41.7646C78.355 41.1352 78.5089 40.5146 78.718 39.9095L65.3365 40.0859C63.5824 40.1088 62.179 41.5492 62.2027 43.3038C62.2255 45.0579 63.666 46.4613 65.4206 46.4376L78.5547 46.2647C78.3291 45.491 78.2008 44.6955 78.1593 43.8951Z" fill="#1A1A1A"/>
<path d="M97.7927 39.6578L85.1254 39.8249C85.3715 40.8 85.4764 41.805 85.4377 42.8075C85.507 43.3104 85.4564 43.8317 85.2721 44.3461C85.1546 44.9706 84.9845 45.5871 84.7524 46.1837L97.8771 46.0109C98.7541 45.9994 99.5434 45.6338 100.111 45.051C100.678 44.469 101.024 43.6697 101.011 42.793C100.987 41.0384 99.5476 39.6355 97.7927 39.6578Z" fill="#1A1A1A"/>
<path d="M38.898 68.9788C55.5119 68.9788 68.98 55.5107 68.98 38.8968C68.98 22.283 55.5119 8.81482 38.898 8.81482C22.2842 8.81482 8.81604 22.283 8.81604 38.8968C8.81604 55.5107 22.2842 68.9788 38.898 68.9788Z" fill="#A8E379"/>
<path opacity="0.3" d="M65.148 24.2068C65.77 26.5748 66.1021 29.0498 66.1021 31.5908C66.1021 47.8258 52.555 61.3728 36.32 61.3728C24.401 61.3728 13.9381 54.0668 9.21405 43.7608C11.5401 58.0608 23.942 68.9778 38.899 68.9778C55.513 68.9778 68.981 55.5098 68.981 38.8958C68.98 33.5598 67.585 28.5528 65.148 24.2068Z" fill="#A8E379"/>
<path opacity="0.3" d="M58.3421 58.3422C69.0826 47.6017 69.0826 30.1879 58.3421 19.4474C47.6016 8.70694 30.1879 8.70692 19.4474 19.4474C8.70688 30.1879 8.7069 47.6017 19.4474 58.3422C30.1879 69.0826 47.6016 69.0826 58.3421 58.3422Z" fill="white"/>
<path opacity="0.5" d="M15.132 45.7728C15.132 29.5378 28.679 15.9908 44.914 15.9908C46.496 15.9908 48.051 16.1228 49.571 16.3698C46.335 14.8338 42.717 13.9718 38.897 13.9718C25.131 13.9718 13.972 25.1308 13.972 38.8968C13.972 41.5398 14.387 44.0858 15.149 46.4768C15.145 46.2418 15.132 46.0078 15.132 45.7728Z" fill="white"/>
<path d="M51.151 22.4845V51.1533H45.6191V38.9186H32.6172V51.1533H27.045V22.4845H32.6172V34.0732H45.6191V22.4845H51.151Z" fill="white"/>
<path d="M122.898 68.9788C139.512 68.9788 152.98 55.5107 152.98 38.8968C152.98 22.283 139.512 8.81482 122.898 8.81482C106.284 8.81482 92.816 22.283 92.816 38.8968C92.816 55.5107 106.284 68.9788 122.898 68.9788Z" fill="#A8E379"/>
<path opacity="0.3" d="M149.148 24.2068C149.77 26.5748 150.102 29.0498 150.102 31.5908C150.102 47.8258 136.555 61.3728 120.32 61.3728C108.401 61.3728 97.9381 54.0668 93.2141 43.7608C95.5401 58.0608 107.942 68.9778 122.899 68.9778C139.513 68.9778 152.981 55.5098 152.981 38.8958C152.98 33.5598 151.585 28.5528 149.148 24.2068Z" fill="#A8E379"/>
<path opacity="0.3" d="M142.342 58.3422C153.083 47.6017 153.083 30.1879 142.342 19.4474C131.602 8.70694 114.188 8.70692 103.447 19.4474C92.7069 30.1879 92.7069 47.6017 103.447 58.3422C114.188 69.0826 131.602 69.0826 142.342 58.3422Z" fill="white"/>
<path opacity="0.5" d="M99.132 45.7728C99.132 29.5378 112.679 15.9908 128.914 15.9908C130.496 15.9908 132.051 16.1228 133.571 16.3698C130.335 14.8338 126.717 13.9718 122.897 13.9718C109.131 13.9718 97.972 25.1308 97.972 38.8968C97.972 41.5398 98.387 44.0858 99.149 46.4768C99.145 46.2418 99.132 46.0078 99.132 45.7728Z" fill="white"/>
<path d="M135.151 22.4845V51.1533H129.619V38.9186H116.617V51.1533H111.045V22.4845H116.617V34.0732H129.619V22.4845H135.151Z" fill="white"/>
</svg>
