<svg width="117" height="101" viewBox="0 0 117 101" fill="none" xmlns="http://www.w3.org/2000/svg">
<path d="M72.3061 60.8856C71.3981 61.0616 70.4231 60.8916 69.5951 60.3336L38.9781 39.6716C37.3231 38.5546 36.8871 36.3086 38.0041 34.6536C39.1211 32.9996 41.3671 32.5626 43.0221 33.6796L73.6391 54.3416C75.2941 55.4586 75.7301 57.7046 74.6131 59.3596C74.0551 60.1866 73.2141 60.7096 72.3061 60.8856Z" fill="#333333"/>
<path d="M52.5371 45.5616C52.7991 44.7996 53.2821 44.1186 54.0131 43.6356C54.5101 43.1086 55.0561 42.6286 55.6451 42.1986L43.0221 33.6796C41.3681 32.5626 39.1211 32.9996 38.0041 34.6536C36.8871 36.3086 37.3231 38.5546 38.9781 39.6716L51.3681 48.0326C51.6601 47.1646 52.0561 46.3376 52.5371 45.5616Z" fill="#1A1A1A"/>
<path d="M73.6392 54.3416L61.6901 46.2776C61.2871 47.3496 60.7332 48.3556 60.0462 49.2676C59.7842 49.7826 59.3992 50.2376 58.8932 50.5976C58.3782 51.1056 57.8191 51.5706 57.2151 51.9786L69.5951 60.3336C70.4221 60.8916 71.3972 61.0616 72.3062 60.8856C73.2142 60.7096 74.0552 60.1866 74.6132 59.3586C75.7302 57.7046 75.2932 55.4586 73.6392 54.3416Z" fill="#1A1A1A"/>
<path d="M30.5581 56.1677C44.701 56.1677 56.1661 44.7026 56.1661 30.5597C56.1661 16.4167 44.701 4.95166 30.5581 4.95166C16.4152 4.95166 4.95013 16.4167 4.95013 30.5597C4.95013 44.7026 16.4152 56.1677 30.5581 56.1677Z" fill="#FF605A"/>
<path opacity="0.3" d="M50.1112 14.0256C51.0152 15.9036 51.6942 17.9176 52.1062 20.0416C54.7402 33.6086 45.6162 47.1276 32.0492 49.7616C22.0892 51.6956 12.1602 47.2876 6.54016 39.4406C10.8032 51.0136 22.9382 58.1246 35.4382 55.6986C49.3222 53.0026 58.3922 39.5636 55.6972 25.6796C54.8312 21.2196 52.8532 17.2616 50.1112 14.0256Z" fill="#FF605A"/>
<path opacity="0.3" d="M52.211 39.458C57.1272 27.4985 51.4175 13.8179 39.4579 8.90171C27.4984 3.98548 13.8179 9.69521 8.90162 21.6548C3.98539 33.6143 9.69513 47.2948 21.6547 52.2111C33.6142 57.1273 47.2948 51.4176 52.211 39.458Z" fill="white"/>
<path opacity="0.5" d="M11.8131 40.1607C9.17913 26.5937 18.3031 13.0747 31.8701 10.4407C33.1921 10.1837 34.5131 10.0427 35.8231 10.0027C32.8701 9.24373 29.7071 9.11073 26.5141 9.73073C15.0111 11.9637 7.49613 23.0997 9.72913 34.6037C10.1581 36.8127 10.9181 38.8727 11.9431 40.7467C11.9001 40.5507 11.8521 40.3587 11.8131 40.1607Z" fill="white"/>
<path d="M32.6145 40.5763C30.8598 40.917 29.197 40.8897 27.6262 40.4943C26.0779 40.0946 24.675 39.4215 23.4174 38.4751C22.178 37.5019 21.1373 36.35 20.2954 35.0194C19.4491 33.6664 18.8774 32.225 18.5804 30.6952C18.2703 29.098 18.2679 27.5227 18.5733 25.9694C18.8968 24.3892 19.4668 22.9363 20.2832 21.6106C21.1178 20.258 22.1803 19.1179 23.4709 18.1903C24.7797 17.2359 26.2889 16.5927 27.9986 16.2608C29.7308 15.9245 31.3732 15.9674 32.9259 16.3896C34.501 16.8075 35.9083 17.503 37.1478 18.4763C38.3872 19.4496 39.4279 20.6015 40.2699 21.932C41.1118 23.2626 41.6813 24.6927 41.9783 26.2225C42.284 27.7972 42.2864 29.3725 41.9854 30.9483C41.68 32.5016 41.1101 33.9546 40.2755 35.3072C39.459 36.6329 38.3943 37.7617 37.0812 38.6936C35.7906 39.6212 34.3017 40.2487 32.6145 40.5763ZM23.3046 29.778C23.5055 30.8128 23.8573 31.7833 24.3601 32.6895C24.8629 33.5957 25.4809 34.3745 26.2143 35.0258C26.9659 35.6502 27.8127 36.1044 28.755 36.3884C29.7153 36.6455 30.7466 36.667 31.8489 36.453C32.9737 36.2346 33.9311 35.8153 34.7211 35.195C35.5068 34.5522 36.1178 33.7916 36.5542 32.9132C36.9862 32.0123 37.2567 31.061 37.3657 30.0594C37.4929 29.0309 37.4625 28.033 37.2747 27.0657C37.0738 26.0308 36.7129 25.0738 36.192 24.1944C35.6893 23.2883 35.0621 22.5229 34.3106 21.8985C33.5772 21.2472 32.7303 20.793 31.77 20.5359C30.8278 20.2519 29.8168 20.2148 28.7369 20.4244C27.5896 20.6472 26.6232 21.08 25.8375 21.7227C25.07 22.3386 24.4681 23.0858 24.0317 23.9642C23.5953 24.8426 23.3113 25.7848 23.1798 26.7908C23.0708 27.7924 23.1124 28.7882 23.3046 29.778Z" fill="white"/>
<path d="M95.1542 86.4458C107.078 78.8412 110.58 63.0102 102.975 51.0863C95.3703 39.1624 79.5393 35.661 67.6154 43.2656C55.6915 50.8703 52.19 66.7013 59.7947 78.6251C67.3993 90.549 83.2303 94.0505 95.1542 86.4458Z" fill="#FF605A"/>
<path opacity="0.3" d="M100.942 48.3296C101.846 50.2076 102.525 52.2216 102.937 54.3456C105.571 67.9126 96.4472 81.4316 82.8802 84.0656C72.9202 85.9996 62.9912 81.5916 57.3712 73.7446C61.6352 85.3176 73.7692 92.4286 86.2692 90.0026C100.153 87.3076 109.223 73.8676 106.528 59.9836C105.662 55.5236 103.683 51.5646 100.942 48.3296Z" fill="#FF605A"/>
<path opacity="0.3" d="M103.395 72.8366C107.798 60.6792 101.512 47.2545 89.3541 42.8516C77.1967 38.4487 63.772 44.735 59.3691 56.8924C54.9662 69.0498 61.2525 82.4745 73.4099 86.8774C85.5673 91.2803 98.992 84.994 103.395 72.8366Z" fill="white"/>
<path opacity="0.5" d="M62.6441 74.4646C60.0101 60.8976 69.1341 47.3786 82.7011 44.7446C84.0231 44.4876 85.3441 44.3466 86.6541 44.3056C83.7011 43.5466 80.5381 43.4136 77.3451 44.0336C65.8411 46.2666 58.3261 57.4026 60.5591 68.9066C60.9881 71.1156 61.7481 73.1756 62.7731 75.0496C62.7301 74.8546 62.6821 74.6616 62.6441 74.4646Z" fill="white"/>
<path d="M83.4441 74.8786C81.6894 75.2192 80.0267 75.1919 78.4559 74.7966C76.9076 74.3968 75.5047 73.7238 74.2471 72.7774C73.0076 71.8041 71.9669 70.6522 71.125 69.3217C70.2787 67.9686 69.7071 66.5272 69.41 64.9975C69.0999 63.4002 69.0976 61.825 69.4029 60.2717C69.7264 58.6915 70.2964 57.2385 71.1128 55.9128C71.9474 54.5602 73.01 53.4201 74.3006 52.4926C75.6093 51.5382 77.1185 50.895 78.8282 50.563C80.5604 50.2267 82.2029 50.2697 83.7555 50.6919C85.3307 51.1097 86.738 51.8053 87.9774 52.7786C89.2169 53.7518 90.2576 54.9037 91.0995 56.2343C91.9415 57.5648 92.5109 58.995 92.8079 60.5247C93.1137 62.0995 93.116 63.6747 92.815 65.2505C92.5097 66.8039 91.9397 68.2568 91.1051 69.6094C90.2887 70.9351 89.2239 72.0639 87.9108 72.9959C86.6202 73.9234 85.1313 74.551 83.4441 74.8786ZM74.1342 64.0803C74.3352 65.1151 74.687 66.0856 75.1898 66.9918C75.6925 67.898 76.3106 68.6767 77.044 69.328C77.7955 69.9525 78.6424 70.4067 79.5846 70.6906C80.5449 70.9477 81.5763 70.9692 82.6786 70.7552C83.8034 70.5368 84.7608 70.1175 85.5508 69.4972C86.3364 68.8545 86.9474 68.0939 87.3838 67.2155C87.8159 66.3145 88.0864 65.3633 88.1954 64.3616C88.3225 63.3332 88.2922 62.3352 88.1044 61.3679C87.9035 60.3331 87.5426 59.376 87.0217 58.4967C86.5189 57.5905 85.8918 56.8252 85.1402 56.2007C84.4068 55.5494 83.56 55.0952 82.5996 54.8381C81.6574 54.5542 80.6464 54.517 79.5666 54.7267C78.4193 54.9494 77.4528 55.3822 76.6672 56.025C75.8997 56.6409 75.2977 57.388 74.8613 58.2664C74.4249 59.1449 74.141 60.0871 74.0095 61.0931C73.9005 62.0947 73.9421 63.0904 74.1342 64.0803Z" fill="white"/>
</svg>
