<svg width="53" height="53" viewBox="0 0 53 53" fill="none" xmlns="http://www.w3.org/2000/svg">
<path d="M26.041 52.082C40.4231 52.082 52.082 40.423 52.082 26.041C52.082 11.659 40.4231 0 26.041 0C11.659 0 0 11.659 0 26.041C0 40.423 11.659 52.082 26.041 52.082Z" fill="#1ED5DA"/>
<path opacity="0.3" d="M48.765 13.325C49.304 15.375 49.591 17.517 49.591 19.717C49.591 33.771 37.863 45.499 23.809 45.499C13.491 45.499 4.43399 39.174 0.343994 30.252C2.35799 42.631 13.094 52.0819 26.042 52.0819C40.424 52.0819 52.083 40.423 52.083 26.041C52.082 21.422 50.874 17.086 48.765 13.325Z" fill="#1ED5DA"/>
<path opacity="0.3" d="M26.041 49.8501C39.1904 49.8501 49.85 39.1904 49.85 26.0411C49.85 12.8917 39.1904 2.23206 26.041 2.23206C12.8917 2.23206 2.23199 12.8917 2.23199 26.0411C2.23199 39.1904 12.8917 49.8501 26.041 49.8501Z" fill="white"/>
<path opacity="0.5" d="M5.46698 31.993C5.46698 17.939 17.195 6.21101 31.249 6.21101C32.618 6.21101 33.964 6.32502 35.281 6.53902C32.48 5.20902 29.348 4.46301 26.041 4.46301C14.124 4.46301 4.46399 14.123 4.46399 26.04C4.46399 28.328 4.82297 30.532 5.48297 32.602C5.47797 32.4 5.46698 32.198 5.46698 31.993Z" fill="white"/>
<path d="M15.3079 24.1714C15.3079 22.6567 15.5759 21.1769 16.1119 19.7321C16.6712 18.2639 17.4751 16.9357 18.5238 15.7472C19.5725 14.5354 20.8541 13.5799 22.3689 12.8808C23.8836 12.1584 25.608 11.7972 27.5422 11.7972C29.826 11.7972 31.7951 12.2983 33.4497 13.3003C35.1275 14.3024 36.3743 15.6074 37.1899 17.2153L33.4846 19.767C33.0652 18.8349 32.5175 18.1008 31.8417 17.5648C31.1659 17.0056 30.4435 16.6211 29.6745 16.4113C28.9055 16.1783 28.1481 16.0618 27.4024 16.0618C26.1906 16.0618 25.1303 16.3065 24.2215 16.7958C23.336 17.2852 22.5902 17.926 21.9844 18.7184C21.3785 19.5107 20.9241 20.3962 20.6211 21.375C20.3415 22.3537 20.2016 23.3325 20.2016 24.3112C20.2016 25.4065 20.3764 26.4668 20.726 27.4921C21.0755 28.4942 21.5649 29.3914 22.1941 30.1837C22.8466 30.9527 23.6156 31.5702 24.5011 32.0363C25.41 32.4791 26.4004 32.7004 27.4723 32.7004C28.2413 32.7004 29.022 32.5723 29.8143 32.3159C30.6066 32.0596 31.3407 31.6518 32.0165 31.0925C32.6923 30.5332 33.2166 29.8108 33.5895 28.9253L37.5394 31.1974C37.0501 32.4325 36.2461 33.4811 35.1275 34.3433C34.0323 35.2056 32.7972 35.8581 31.4223 36.3008C30.0474 36.7436 28.6841 36.965 27.3325 36.965C25.5614 36.965 23.9419 36.6038 22.4737 35.8814C21.0056 35.1357 19.7356 34.1569 18.6636 32.9451C17.615 31.71 16.7877 30.3351 16.1818 28.8204C15.5992 27.2824 15.3079 25.7327 15.3079 24.1714Z" fill="white"/>
</svg>
