<svg width="118" height="106" viewBox="0 0 118 106" fill="none" xmlns="http://www.w3.org/2000/svg">
<path d="M51.8471 71.6745C51.0741 71.4535 50.3861 70.9365 49.9651 70.1785L34.3991 42.1105C33.5581 40.5935 34.1051 38.6825 35.6221 37.8405C37.1391 36.9995 39.0511 37.5475 39.8921 39.0635L55.4581 67.1305C56.2991 68.6475 55.7521 70.5595 54.2351 71.4005C53.4771 71.8225 52.6201 71.8965 51.8471 71.6745Z" fill="#333333"/>
<path d="M42.5781 52.0165C43.0811 51.5295 43.7241 51.1925 44.4801 51.1065C45.0731 50.8945 45.6851 50.7375 46.3101 50.6365L39.8921 39.0644C39.0511 37.5474 37.1391 37.0005 35.6221 37.8415C34.1051 38.6825 33.5571 40.5944 34.3991 42.1114L40.6981 53.4695C41.2671 52.9115 41.9001 52.4285 42.5781 52.0165Z" fill="#1A1A1A"/>
<path d="M55.4591 67.1325L49.3841 56.1785C48.6501 56.8495 47.8241 57.4105 46.9331 57.8465C46.5271 58.1415 46.0491 58.3425 45.5161 58.4225C44.9171 58.6135 44.3011 58.7525 43.6721 58.8305L49.9661 70.1795C50.3871 70.9375 51.0751 71.4535 51.8481 71.6755C52.6211 71.8965 53.4781 71.8235 54.2361 71.4025C55.7521 70.5605 56.3001 68.6495 55.4591 67.1325Z" fill="#1A1A1A"/>
<path d="M76.3821 34.8446C75.8191 35.4176 75.0371 35.7766 74.1701 35.7846L42.0761 36.0746C40.3421 36.0906 38.9231 34.6966 38.9071 32.9626C38.8911 31.2286 40.2851 29.8096 42.0191 29.7936L74.1131 29.5036C75.8481 29.4876 77.2661 30.8816 77.2821 32.6156C77.2901 33.4836 76.9461 34.2716 76.3821 34.8446Z" fill="#333333"/>
<path d="M54.6831 33.6126C54.4951 32.9386 54.5051 32.2126 54.7911 31.5066C54.8871 30.8846 55.0421 30.2716 55.2511 29.6746L42.0191 29.7946C40.2851 29.8106 38.8911 31.2296 38.9071 32.9636C38.9231 34.6986 40.3411 36.0916 42.0761 36.0756L55.0631 35.9586C54.8451 35.1916 54.7221 34.4046 54.6831 33.6126Z" fill="#1A1A1A"/>
<path d="M74.113 29.5035L61.588 29.6165C61.828 30.5825 61.9261 31.5755 61.8841 32.5665C61.9501 33.0645 61.8981 33.5795 61.7141 34.0865C61.5961 34.7035 61.4241 35.3125 61.1931 35.9015L74.17 35.7845C75.037 35.7765 75.819 35.4175 76.382 34.8445C76.945 34.2715 77.29 33.4825 77.282 32.6155C77.266 30.8815 75.848 29.4885 74.113 29.5035Z" fill="#1A1A1A"/>
<path d="M85.225 42.3634C85.363 43.1554 85.2001 43.9995 84.7021 44.7095L66.255 70.9735C65.258 72.3935 63.299 72.7354 61.88 71.7384C60.461 70.7414 60.1181 68.7824 61.1151 67.3634L79.561 41.0994C80.558 39.6795 82.517 39.3375 83.936 40.3345C84.646 40.8325 85.087 41.5714 85.225 42.3634Z" fill="#333333"/>
<path d="M71.592 59.2894C70.934 59.0494 70.35 58.6194 69.943 57.9754C69.493 57.5354 69.085 57.0534 68.721 56.5344L61.116 67.3634C60.119 68.7824 60.462 70.7414 61.881 71.7384C63.3 72.7354 65.259 72.3934 66.256 70.9734L73.721 60.3454C72.97 60.0764 72.258 59.7194 71.592 59.2894Z" fill="#1A1A1A"/>
<path d="M79.562 41.0984L72.363 51.3484C73.288 51.7154 74.1531 52.2134 74.9341 52.8244C75.3771 53.0604 75.766 53.4024 76.071 53.8474C76.504 54.3034 76.899 54.7964 77.243 55.3274L84.7021 44.7074C85.2001 43.9974 85.364 43.1534 85.225 42.3614C85.087 41.5694 84.646 40.8304 83.936 40.3324C82.517 39.3364 80.559 39.6794 79.562 41.0984Z" fill="#1A1A1A"/>
<path d="M47.201 47.47C55.8905 38.7805 55.8905 24.6921 47.201 16.0026C38.5116 7.31317 24.4232 7.31317 15.7337 16.0026C7.04421 24.6921 7.0442 38.7805 15.7337 47.47C24.4231 56.1595 38.5116 56.1595 47.201 47.47Z" fill="#FF605A"/>
<path opacity="0.3" d="M53.129 26.6394C53.089 28.4494 52.821 30.2774 52.303 32.0844C48.996 43.6284 36.602 50.5014 25.058 47.1944C16.583 44.7664 10.632 37.4394 9.37203 29.1484C8.11303 39.7904 14.707 50.0804 25.342 53.1274C37.155 56.5124 49.476 49.6794 52.861 37.8654C53.948 34.0704 53.976 30.2254 53.129 26.6394Z" fill="#FF605A"/>
<path opacity="0.3" d="M51.8215 31.9165C51.9293 20.6808 42.9085 11.485 31.6728 11.3772C20.4371 11.2693 11.2413 20.2902 11.1335 31.5259C11.0256 42.7615 20.0465 51.9573 31.2822 52.0652C42.5178 52.173 51.7136 43.1521 51.8215 31.9165Z" fill="white"/>
<path opacity="0.5" d="M13.1711 31.7846C16.4791 20.2406 28.8721 13.3676 40.4161 16.6746C41.5411 16.9966 42.6191 17.4076 43.6501 17.8936C41.6621 16.1426 39.2651 14.7926 36.5491 14.0136C26.7611 11.2096 16.5521 16.8706 13.7481 26.6596C13.2101 28.5396 12.9861 30.4336 13.0411 32.2896C13.0841 32.1206 13.1221 31.9516 13.1711 31.7846Z" fill="white"/>
<path d="M29.0678 40.5108C27.5748 40.0831 26.2981 39.4066 25.2376 38.4815C24.1962 37.5618 23.3751 36.4877 22.7743 35.2592C22.1981 34.0171 21.8462 32.715 21.7186 31.3529C21.5965 29.9717 21.7219 28.6302 22.0948 27.3286C22.4842 25.9696 23.1031 24.7489 23.9518 23.6665C24.825 22.5703 25.839 21.6699 26.9936 20.9651C28.1729 20.2466 29.445 19.7826 30.8099 19.573C32.1995 19.3497 33.6216 19.4464 35.0763 19.8632C36.5502 20.2854 37.805 20.966 38.8409 21.9048C39.896 22.8491 40.7116 23.9424 41.2878 25.1845C41.864 26.4265 42.2159 27.7287 42.3434 29.0908C42.471 30.4529 42.3483 31.7847 41.9755 33.0863C41.5916 34.4262 40.9726 35.6469 40.1185 36.7485C39.2699 37.831 38.2559 38.7314 37.0766 39.4499C35.922 40.1547 34.6526 40.6092 33.2686 40.8133C31.9037 41.0229 30.5034 40.9221 29.0678 40.5108ZM26.1144 28.4802C25.8622 29.3607 25.7521 30.2509 25.7843 31.1507C25.8165 32.0505 25.9882 32.8971 26.2994 33.6905C26.6353 34.4702 27.112 35.1557 27.7297 35.7469C28.372 36.3244 29.1621 36.7475 30.1001 37.0162C31.0571 37.2904 31.9637 37.343 32.8199 37.1741C33.6815 36.986 34.4544 36.6378 35.1385 36.1296C35.8281 35.6022 36.4125 34.9722 36.8917 34.2396C37.3954 33.4933 37.7652 32.7086 38.001 31.8856C38.2533 31.0051 38.351 30.1217 38.2942 29.2356C38.262 28.3357 38.078 27.496 37.7421 26.7162C37.4309 25.9229 36.9541 25.2374 36.3118 24.6599C35.6942 24.0687 34.9259 23.6415 34.0072 23.3783C33.031 23.0986 32.112 23.0528 31.2504 23.2409C30.4133 23.4153 29.6528 23.7567 28.9687 24.2649C28.2846 24.7731 27.6934 25.3908 27.1951 26.118C26.7159 26.8506 26.3557 27.638 26.1144 28.4802Z" fill="white"/>
<path d="M98.2105 49.5285C108.629 43.0117 111.792 29.2829 105.275 18.8644C98.7584 8.44583 85.0296 5.28286 74.6111 11.7997C64.1926 18.3165 61.0296 32.0452 67.5464 42.4638C74.0632 52.8823 87.792 56.0452 98.2105 49.5285Z" fill="#FF605A"/>
<path opacity="0.3" d="M108.195 26.1235C108.109 27.9325 107.794 29.7525 107.23 31.5455C103.629 43.0015 91.0641 49.5555 79.6081 45.9545C71.1981 43.3105 65.4351 35.8345 64.3881 27.5135C62.8571 38.1195 69.1861 48.5745 79.7411 51.8925C91.4641 55.5775 103.955 49.0615 107.641 37.3385C108.825 33.5735 108.951 29.7295 108.195 26.1235Z" fill="#FF605A"/>
<path opacity="0.3" d="M95.9129 48.6653C105.848 43.4171 109.647 31.109 104.398 21.1744C99.1502 11.2398 86.8421 7.44077 76.9076 12.689C66.973 17.9371 63.1739 30.2452 68.4221 40.1798C73.6702 50.1144 85.9783 53.9135 95.9129 48.6653Z" fill="white"/>
<path opacity="0.5" d="M68.1191 30.2456C71.7201 18.7896 84.2851 12.2356 95.7411 15.8366C96.8571 16.1876 97.9251 16.6256 98.9431 17.1376C97.0001 15.3356 94.6391 13.9256 91.9431 13.0776C82.2291 10.0236 71.8801 15.4226 68.8261 25.1366C68.2401 27.0016 67.9681 28.8906 67.9751 30.7466C68.0241 30.5796 68.0661 30.4126 68.1191 30.2456Z" fill="white"/>
<path d="M83.759 39.3649C82.2773 38.8991 81.0182 38.1902 79.9816 37.2382C78.964 36.2921 78.1706 35.1973 77.6014 33.9538C77.0571 32.6974 76.7386 31.3866 76.6459 30.0216C76.5591 28.6376 76.7188 27.2997 77.1248 26.008C77.5488 24.6593 78.1988 23.4548 79.0749 22.3943C79.9759 21.3208 81.0126 20.4465 82.185 19.7714C83.3823 19.0833 84.666 18.6519 86.0359 18.4772C87.4307 18.2895 88.85 18.4226 90.2937 18.8764C91.7563 19.3362 92.9935 20.0487 94.0051 21.0138C95.0357 21.9848 95.8231 23.0986 96.3674 24.3551C96.9117 25.6115 97.2302 26.9223 97.3229 28.2873C97.4157 29.6523 97.259 30.9807 96.8529 32.2724C96.4349 33.6021 95.7849 34.8067 94.9029 35.8861C94.0268 36.9466 92.9901 37.8209 91.7928 38.509C90.6204 39.1841 89.3397 39.606 87.9509 39.7747C86.5809 39.9493 85.1837 39.8128 83.759 39.3649ZM81.1139 27.262C80.8392 28.1358 80.7065 29.0229 80.7156 29.9234C80.7248 30.8238 80.8748 31.6745 81.1657 32.4757C81.4815 33.2637 81.9406 33.9612 82.543 34.568C83.1704 35.1618 83.9495 35.605 84.8803 35.8976C85.83 36.1962 86.7351 36.272 87.5953 36.125C88.4616 35.9589 89.2431 35.6306 89.9401 35.14C90.6429 34.6305 91.2433 34.0156 91.741 33.2954C92.2637 32.5622 92.6535 31.7871 92.9102 30.9703C93.1849 30.0965 93.3052 29.2159 93.2711 28.3285C93.2619 27.4281 93.0994 26.5839 92.7836 25.7958C92.4927 24.9947 92.0336 24.2972 91.4062 23.7034C90.8038 23.0966 90.0467 22.6499 89.1349 22.3632C88.1662 22.0587 87.2487 21.9894 86.3824 22.1554C85.5412 22.3084 84.7721 22.6302 84.0752 23.1208C83.3782 23.6114 82.7714 24.2138 82.2547 24.928C81.7569 25.6482 81.3767 26.4262 81.1139 27.262Z" fill="white"/>
<path d="M57.3131 100.586C69.602 100.586 79.5641 90.6234 79.5641 78.3345C79.5641 66.0456 69.602 56.0835 57.3131 56.0835C45.0242 56.0835 35.0621 66.0456 35.0621 78.3345C35.0621 90.6234 45.0242 100.586 57.3131 100.586Z" fill="#FF605A"/>
<path opacity="0.3" d="M78.9711 73.2375C78.9311 75.0475 78.6631 76.8756 78.1451 78.6826C74.8381 90.2266 62.4441 97.0996 50.9001 93.7926C42.4251 91.3646 36.4741 84.0376 35.2141 75.7466C33.9551 86.3886 40.5491 96.6786 51.1841 99.7256C62.9981 103.111 75.3181 96.2776 78.7031 84.4636C79.7911 80.6686 79.8191 76.8235 78.9711 73.2375Z" fill="#FF605A"/>
<path opacity="0.3" d="M67.1041 96.1808C76.9589 90.7832 80.5722 78.4186 75.1746 68.5638C69.7769 58.709 57.4124 55.0957 47.5576 60.4933C37.7028 65.891 34.0895 78.2555 39.4871 88.1103C44.8847 97.9651 57.2493 101.578 67.1041 96.1808Z" fill="white"/>
<path opacity="0.5" d="M39.0131 78.3816C42.3211 66.8376 54.7141 59.9646 66.2581 63.2716C67.3831 63.5936 68.4611 64.0046 69.4921 64.4906C67.5041 62.7396 65.1071 61.3886 62.3911 60.6106C52.6031 57.8056 42.3941 63.4676 39.5901 73.2556C39.0511 75.1356 38.8281 77.0296 38.8831 78.8856C38.9261 78.7176 38.9651 78.5496 39.0131 78.3816Z" fill="white"/>
<path d="M54.9116 87.1085C53.4186 86.6807 52.1419 86.0043 51.0814 85.0791C50.04 84.1594 49.2189 83.0853 48.6181 81.8569C48.0419 80.6148 47.69 79.3127 47.5624 77.9506C47.4403 76.5693 47.5657 75.2279 47.9386 73.9263C48.328 72.5673 48.9469 71.3466 49.7956 70.2641C50.6688 69.168 51.6828 68.2675 52.8374 67.5627C54.0167 66.8443 55.2888 66.3802 56.6537 66.1706C58.0433 65.9473 59.4654 66.0441 60.9201 66.4608C62.394 66.8831 63.6489 67.5636 64.6847 68.5025C65.7398 69.4468 66.5554 70.54 67.1316 71.7821C67.7078 73.0242 68.0597 74.3263 68.1872 75.6884C68.3148 77.0505 68.1922 78.3824 67.8193 79.684C67.4354 81.0239 66.8164 82.2446 65.9623 83.3462C65.1137 84.4286 64.0997 85.3291 62.9205 86.0475C61.7658 86.7524 60.4964 87.2068 59.1124 87.411C57.7475 87.6206 56.3472 87.5197 54.9116 87.1085ZM51.9582 75.0779C51.706 75.9584 51.596 76.8485 51.6281 77.7484C51.6603 78.6482 51.832 79.4948 52.1432 80.2882C52.4791 81.0679 52.9558 81.7533 53.5735 82.3445C54.2158 82.9221 55.006 83.3452 55.9439 83.6139C56.9009 83.8881 57.8075 83.9407 58.6637 83.7717C59.5254 83.5836 60.2982 83.2355 60.9823 82.7273C61.6719 82.1999 62.2563 81.5699 62.7355 80.8373C63.2392 80.091 63.609 79.3063 63.8448 78.4832C64.0971 77.6027 64.1948 76.7194 64.138 75.8332C64.1058 74.9334 63.9218 74.0936 63.5859 73.3139C63.2747 72.5205 62.798 71.8351 62.1556 71.2575C61.538 70.6663 60.7697 70.2391 59.851 69.9759C58.8748 69.6962 57.9558 69.6505 57.0942 69.8386C56.2572 70.013 55.4966 70.3543 54.8125 70.8626C54.1284 71.3708 53.5372 71.9885 53.0389 72.7156C52.5597 73.4482 52.1995 74.2357 51.9582 75.0779Z" fill="white"/>
</svg>
