<svg width="123" height="136" viewBox="0 0 123 136" fill="none" xmlns="http://www.w3.org/2000/svg">
<path d="M62.1604 69.0948C63.0984 69.2158 64.0825 68.9788 64.8905 68.3558L94.7974 45.2878C96.4134 44.0408 96.7134 41.7208 95.4664 40.1038C94.2194 38.4878 91.8985 38.1878 90.2825 39.4348L60.3754 62.5018C58.7594 63.7488 58.4594 66.0698 59.7064 67.6858C60.3304 68.4948 61.2224 68.9738 62.1604 69.0948Z" fill="#333333"/>
<path d="M88.1345 46.9488C87.8185 46.1878 87.2815 45.5238 86.5035 45.0788C85.9625 44.5728 85.3735 44.1188 84.7455 43.7178L97.0765 34.2078C98.6925 32.9618 101.013 33.2608 102.26 34.8768C103.507 36.4928 103.207 38.8138 101.591 40.0608L89.4895 49.3958C89.1325 48.5278 88.6745 47.7088 88.1345 46.9488Z" fill="#1A1A1A"/>
<path d="M60.3765 62.5028L79.6345 47.6108C80.1155 48.6788 80.7455 49.6698 81.5055 50.5558C81.8065 51.0638 82.2295 51.5038 82.7685 51.8388C83.3265 52.3238 83.9275 52.7618 84.5705 53.1388L64.8905 68.3558C64.0825 68.9788 63.0985 69.2158 62.1605 69.0948C61.2225 68.9738 60.3305 68.4948 59.7075 67.6868C58.4615 66.0708 58.7605 63.7498 60.3765 62.5028Z" fill="#1A1A1A"/>
<path d="M119.272 33.9236C118.055 43.3486 109.428 50.0026 100.003 48.7866C90.5785 47.5696 83.9235 38.9426 85.1405 29.5176C86.3575 20.0926 94.9845 13.4386 104.409 14.6546C113.834 15.8706 120.488 24.4986 119.272 33.9236Z" fill="#A8E379"/>
<path opacity="0.3" d="M118.173 25.3096C118.353 26.6986 118.36 28.1266 118.174 29.5686C116.985 38.7786 108.307 45.4726 99.0975 44.2836C92.3355 43.4106 86.9355 38.4996 85.0095 32.3066C85.2815 40.5896 91.5174 47.6916 100.003 48.7876C109.428 50.0046 118.055 43.3506 119.272 33.9246C119.662 30.8966 119.237 27.9526 118.173 25.3096Z" fill="#A8E379"/>
<path opacity="0.3" d="M107.9 46.3573C116 43.2128 120.018 34.0972 116.873 25.9973C113.728 17.8973 104.613 13.8801 96.5129 17.0247C88.4129 20.1693 84.3958 29.2848 87.5404 37.3848C90.685 45.4848 99.8005 49.5019 107.9 46.3573Z" fill="white"/>
<path opacity="0.5" d="M88.2195 33.8806C89.4085 24.6706 98.0865 17.9766 107.297 19.1656C108.194 19.2816 109.067 19.4706 109.911 19.7216C108.188 18.6136 106.199 17.8596 104.031 17.5796C96.2205 16.5716 89.0725 22.0846 88.0645 29.8946C87.8705 31.3946 87.9195 32.8686 88.1775 34.2806C88.1925 34.1476 88.2025 34.0136 88.2195 33.8806Z" fill="white"/>
<path d="M110.317 23.57L108.218 39.8349L105.08 39.4299L105.976 32.4887L98.5993 31.5367L97.7035 38.4779L94.5421 38.0699L96.6412 21.805L99.8026 22.213L98.9541 28.7877L106.331 29.7397L107.179 23.165L110.317 23.57Z" fill="white"/>
<path d="M57.0276 68.591C56.0836 68.527 55.1646 68.104 54.4926 67.336L29.6396 38.895C28.2966 37.358 28.4536 35.023 29.9906 33.68C31.5276 32.337 33.8626 32.494 35.2056 34.031L60.0586 62.472C61.4016 64.009 61.2446 66.344 59.7076 67.687C58.9396 68.358 57.9716 68.655 57.0276 68.591Z" fill="#333333"/>
<path d="M35.8546 41.8178C36.3126 41.1328 36.9686 40.5857 37.8186 40.3007C38.4476 39.9097 39.1136 39.5788 39.8076 39.3078L29.5616 27.5818C28.2186 26.0448 25.8836 25.8878 24.3466 27.2308C22.8096 28.5738 22.6526 30.9088 23.9956 32.4458L34.0526 43.9548C34.5686 43.1728 35.1766 42.4598 35.8546 41.8178Z" fill="#1A1A1A"/>
<path d="M60.0586 62.4716L44.0626 44.1196C43.3836 45.0736 42.5725 45.9237 41.6545 46.6447C41.2605 47.0847 40.7606 47.4337 40.1666 47.6577C39.5246 48.0247 38.8495 48.3376 38.1465 48.5826L54.4926 67.3347C55.1636 68.1027 56.0836 68.5266 57.0276 68.5896C57.9716 68.6536 58.9396 68.3566 59.7076 67.6846C61.2445 66.3436 61.4026 64.0086 60.0586 62.4716Z" fill="#1A1A1A"/>
<path d="M35.5417 37.7405C43.0515 31.9167 44.4183 21.1076 38.5944 13.5977C32.7705 6.0879 21.9614 4.72114 14.4516 10.545C6.94175 16.3689 5.57501 27.178 11.3989 34.6879C17.2228 42.1977 28.0319 43.5644 35.5417 37.7405Z" fill="#A8E379"/>
<path opacity="0.3" d="M40.9795 17.7339C41.1595 19.1229 41.1665 20.5509 40.9805 21.9929C39.7915 31.2029 31.1135 37.8969 21.9025 36.7079C15.1405 35.8349 9.74051 30.9239 7.81451 24.7309C8.08651 33.0139 14.3225 40.1159 22.8085 41.2119C32.2335 42.4289 40.8605 35.7749 42.0775 26.3489C42.4685 23.3209 42.0435 20.3779 40.9795 17.7339Z" fill="#A8E379"/>
<path opacity="0.3" d="M36.7791 34.5732C42.5461 28.0738 41.9523 18.1299 35.4528 12.3629C28.9534 6.59599 19.0095 7.18979 13.2425 13.6892C7.47558 20.1887 8.06938 30.1326 14.5688 35.8995C21.0683 41.6665 31.0121 41.0727 36.7791 34.5732Z" fill="white"/>
<path opacity="0.5" d="M11.0255 26.3049C12.2145 17.0949 20.8925 10.4009 30.1035 11.5899C31.0005 11.7059 31.8735 11.8949 32.7175 12.1459C30.9945 11.0379 29.0055 10.2839 26.8375 10.0039C19.0275 8.9959 11.8795 14.5089 10.8715 22.3189C10.6775 23.8189 10.7265 25.2929 10.9845 26.7049C10.9975 26.5719 11.0085 26.4389 11.0255 26.3049Z" fill="white"/>
<path d="M33.501 16.0319L31.4018 32.2968L28.2634 31.8918L29.1592 24.9506L21.7828 23.9986L20.8869 30.9398L17.7256 30.5318L19.8247 14.2669L22.9861 14.6749L22.1375 21.2496L29.514 22.2016L30.3625 15.6269L33.501 16.0319Z" fill="white"/>
<path d="M62.3875 66.7819C63.3315 66.8459 64.2505 67.2689 64.9225 68.0369L89.7755 96.4779C91.1185 98.0149 90.9615 100.35 89.4245 101.693C87.8875 103.036 85.5525 102.879 84.2095 101.342L59.3575 72.9009C58.0145 71.3639 58.1715 69.0289 59.7085 67.6859C60.4765 67.0149 61.4445 66.7179 62.3875 66.7819Z" fill="#333333"/>
<path d="M83.5605 93.555C83.1025 94.24 82.4466 94.787 81.5966 95.072C80.9676 95.463 80.3015 95.794 79.6075 96.065L89.8535 107.791C91.1965 109.328 93.5315 109.485 95.0685 108.142C96.6055 106.799 96.7626 104.464 95.4196 102.927L85.3625 91.418C84.8475 92.2 84.2385 92.914 83.5605 93.555Z" fill="#1A1A1A"/>
<path d="M59.3566 72.9019L75.3526 91.2539C76.0316 90.2999 76.8426 89.4499 77.7606 88.7289C78.1546 88.2889 78.6546 87.9399 79.2486 87.7159C79.8906 87.3489 80.5655 87.0359 81.2685 86.7909L64.9225 68.0389C64.2515 67.2709 63.3315 66.8469 62.3875 66.7839C61.4435 66.7199 60.4755 67.0169 59.7075 67.6889C58.1705 69.0299 58.0136 71.3639 59.3566 72.9019Z" fill="#1A1A1A"/>
<path d="M104.953 124.798C112.464 118.976 113.834 108.167 108.012 100.655C102.19 93.1437 91.3811 91.7738 83.8693 97.5958C76.3576 103.418 74.9878 114.227 80.8097 121.739C86.6317 129.25 97.4408 130.62 104.953 124.798Z" fill="#A8E379"/>
<path opacity="0.3" d="M110.372 104.817C110.552 106.206 110.559 107.634 110.373 109.076C109.184 118.286 100.506 124.98 91.2946 123.791C84.5326 122.918 79.1326 118.007 77.2066 111.814C77.4786 120.097 83.7146 127.199 92.2006 128.295C101.626 129.512 110.253 122.858 111.47 113.432C111.861 110.404 111.436 107.461 110.372 104.817Z" fill="#A8E379"/>
<path opacity="0.3" d="M110.007 113.243C108.894 121.86 101.007 127.944 92.3886 126.832C83.7716 125.719 77.6876 117.832 78.7996 109.214C79.9126 100.597 87.7996 94.513 96.4176 95.625C105.036 96.738 111.12 104.625 110.007 113.243Z" fill="white"/>
<path opacity="0.5" d="M80.4176 113.388C81.6066 104.178 90.2846 97.4839 99.4956 98.6729C100.393 98.7889 101.266 98.9779 102.11 99.2289C100.387 98.1209 98.3976 97.3669 96.2296 97.0869C88.4196 96.0789 81.2716 101.592 80.2636 109.402C80.0696 110.902 80.1186 112.376 80.3766 113.788C80.3896 113.655 80.3996 113.522 80.4176 113.388Z" fill="white"/>
<path d="M102.515 103.078L100.416 119.343L97.2777 118.938L98.1735 111.996L90.797 111.044L89.9012 117.986L86.7399 117.578L88.839 101.313L92.0003 101.721L91.1518 108.295L98.5283 109.247L99.3768 102.673L102.515 103.078Z" fill="white"/>
<path d="M57.2545 66.2779C56.3165 66.1569 55.3325 66.3938 54.5245 67.0168L24.6175 90.0849C23.0015 91.3319 22.7015 93.6519 23.9485 95.2689C25.1945 96.8849 27.5165 97.1849 29.1325 95.9379L59.0395 72.8708C60.6555 71.6238 60.9555 69.3029 59.7085 67.6869C59.0845 66.8789 58.1925 66.3989 57.2545 66.2779Z" fill="#333333"/>
<path d="M31.2806 88.4248C31.5966 89.1858 32.1336 89.8498 32.9116 90.2948C33.4526 90.8008 34.0416 91.2548 34.6696 91.6558L22.3386 101.166C20.7226 102.412 18.4016 102.113 17.1546 100.497C15.9076 98.8808 16.2076 96.5598 17.8236 95.3128L29.9256 85.9778C30.2826 86.8458 30.7406 87.6638 31.2806 88.4248Z" fill="#1A1A1A"/>
<path d="M59.0385 72.8698L39.7795 87.7619C39.2985 86.6939 38.6686 85.7029 37.9086 84.8169C37.6076 84.3089 37.1846 83.8688 36.6456 83.5338C36.0876 83.0488 35.4866 82.6108 34.8436 82.2338L54.5236 67.0168C55.3316 66.3938 56.3155 66.1569 57.2535 66.2779C58.1915 66.3989 59.0835 66.8778 59.7065 67.6858C60.9545 69.3028 60.6545 71.6228 59.0385 72.8698Z" fill="#1A1A1A"/>
<path d="M34.2755 105.856C33.0585 115.281 24.4316 121.935 15.0066 120.719C5.58157 119.502 -1.07344 110.875 0.143559 101.45C1.36056 92.0249 9.98757 85.3699 19.4126 86.5869C28.8376 87.8039 35.4925 96.4309 34.2755 105.856Z" fill="#A8E379"/>
<path opacity="0.3" d="M33.1776 97.2419C33.3576 98.6309 33.3646 100.059 33.1786 101.501C31.9896 110.711 23.3116 117.405 14.1016 116.216C7.33956 115.343 1.93955 110.432 0.0135498 104.239C0.28555 112.522 6.52157 119.624 15.0076 120.72C24.4326 121.937 33.0596 115.283 34.2766 105.857C34.6666 102.829 34.2416 99.8859 33.1776 97.2419Z" fill="#A8E379"/>
<path opacity="0.3" d="M32.8126 105.667C31.6996 114.284 23.8126 120.368 15.1946 119.256C6.57759 118.143 0.493602 110.256 1.6056 101.638C2.7186 93.0208 10.6056 86.9368 19.2236 88.0488C27.8416 89.1618 33.9256 97.0499 32.8126 105.667Z" fill="white"/>
<path opacity="0.5" d="M3.22258 105.813C4.41158 96.603 13.0896 89.909 22.2996 91.098C23.1966 91.214 24.0696 91.403 24.9136 91.654C23.1906 90.546 21.2016 89.792 19.0336 89.512C11.2246 88.504 4.07559 94.0169 3.06759 101.827C2.87359 103.327 2.92256 104.801 3.18056 106.213C3.19556 106.08 3.20558 105.947 3.22258 105.813Z" fill="white"/>
<path d="M25.6987 95.5395L23.5995 111.804L20.4611 111.399L21.3569 104.458L13.9804 103.506L13.0846 110.447L9.92328 110.039L12.0224 93.7745L15.1837 94.1825L14.3352 100.757L21.7117 101.709L22.5602 95.1345L25.6987 95.5395Z" fill="white"/>
<path d="M76.6933 88.043C87.7258 78.8169 89.1902 62.3941 79.9641 51.3616C70.738 40.3291 54.3152 38.8648 43.2827 48.0909C32.2503 57.3169 30.7859 73.7397 40.012 84.7722C49.2381 95.8047 65.6609 97.269 76.6933 88.043Z" fill="#1ED5DA"/>
<path opacity="0.3" d="M83.8566 57.6128C84.1926 59.7048 84.2696 61.8658 84.0546 64.0548C82.6816 78.0418 69.8646 88.5678 55.8776 87.1958C45.6086 86.1878 37.2125 79.0088 34.0135 69.7298C34.8085 82.2468 44.5695 92.7008 57.4565 93.9658C71.7705 95.3708 84.5126 84.9058 85.9166 70.5918C86.3676 65.9948 85.5886 61.5618 83.8566 57.6128Z" fill="#1ED5DA"/>
<path opacity="0.3" d="M74.4322 87.0097C84.8912 79.0398 86.9091 64.1003 78.9393 53.6413C70.9695 43.1823 56.03 41.1645 45.571 49.1343C35.112 57.1041 33.0941 72.0436 41.0639 82.5026C49.0337 92.9616 63.9732 94.9795 74.4322 87.0097Z" fill="white"/>
<path opacity="0.5" d="M38.9425 71.9639C40.3155 57.9769 53.1325 47.4499 67.1195 48.8229C68.4825 48.9569 69.8105 49.2019 71.0995 49.5439C68.4415 47.9469 65.3975 46.8989 62.1065 46.5759C50.2465 45.4119 39.6895 54.0829 38.5255 65.9429C38.3025 68.2199 38.4445 70.4489 38.8995 72.5729C38.9135 72.3689 38.9225 72.1669 38.9425 71.9639Z" fill="white"/>
<path d="M49.5384 65.1108C49.6864 63.6033 50.0977 62.1568 50.7722 60.7713C51.4723 59.3649 52.4022 58.1215 53.5619 57.0412C54.7239 55.9377 56.0928 55.112 57.6685 54.5643C59.2466 53.9933 60.9981 53.8023 62.923 53.9913C65.1957 54.2144 67.1065 54.9054 68.6552 56.0643C70.2271 57.2255 71.3403 58.646 71.9949 60.3259L68.0582 62.5034C67.7318 61.5348 67.2585 60.7507 66.6383 60.1513C66.0204 59.5287 65.339 59.0754 64.5942 58.7916C63.8516 58.4845 63.1093 58.2946 62.3672 58.2217C61.1612 58.1033 60.0821 58.2432 59.1298 58.6415C58.2007 59.042 57.396 59.6069 56.7156 60.3362C56.0352 61.0655 55.4964 61.9024 55.0993 62.8469C54.7254 63.7936 54.4906 64.754 54.395 65.728C54.288 66.818 54.3583 67.8903 54.606 68.9449C54.856 69.9763 55.2554 70.917 55.8041 71.767C56.3784 72.5961 57.0833 73.2858 57.9191 73.8361C58.7803 74.3655 59.7443 74.6826 60.8111 74.7874C61.5765 74.8625 62.3659 74.8112 63.1795 74.6335C63.993 74.4558 64.7634 74.1217 65.4906 73.6311C66.2178 73.1405 66.8102 72.4728 67.2678 71.628L70.9768 74.2751C70.3691 75.4564 69.4665 76.4215 68.2691 77.1703C67.0948 77.9214 65.8019 78.4501 64.3904 78.7564C62.9788 79.0627 61.6005 79.1498 60.2553 79.0178C58.4928 78.8447 56.9163 78.327 55.5258 77.4647C54.1375 76.5791 52.9692 75.481 52.0208 74.1703C51.0978 72.8387 50.4089 71.3895 49.9539 69.8229C49.5244 68.2353 49.3859 66.6646 49.5384 65.1108Z" fill="white"/>
</svg>
