<svg width="124" height="124" viewBox="0 0 124 124" fill="none" xmlns="http://www.w3.org/2000/svg">
<g filter="url(#filter0_d_30_66)">
<circle cx="61.6" cy="61.6" r="36.5" fill="#5500FF"/>
</g>
<path d="M52.6781 69.7875C55.4698 69.7875 57.4021 68.3916 58.475 65.6L62.4906 67.1156C61.626 69.2406 60.3552 70.8239 58.6781 71.8656C57.0114 72.8969 55.0114 73.4125 52.6781 73.4125C50.3239 73.4125 48.3187 72.9646 46.6625 72.0687C45.0062 71.1625 43.7406 69.8552 42.8656 68.1469C42.001 66.4385 41.5687 64.3864 41.5687 61.9906C41.5687 59.5739 41.9854 57.5323 42.8187 55.8656C43.6521 54.1989 44.8812 52.9333 46.5062 52.0687C48.1312 51.1937 50.1208 50.7562 52.475 50.7562C55.0583 50.7562 57.1625 51.2771 58.7875 52.3187C60.4125 53.35 61.5531 54.8708 62.2094 56.8812L58.1469 57.9906C57.8031 56.8864 57.126 56.0114 56.1156 55.3656C55.1156 54.7094 53.9333 54.3812 52.5687 54.3812C50.4854 54.3812 48.9021 55.0271 47.8187 56.3187C46.7458 57.6104 46.2094 59.501 46.2094 61.9906C46.2094 63.6781 46.4541 65.1 46.9437 66.2562C47.4437 67.4125 48.1729 68.2927 49.1312 68.8969C50.1 69.4906 51.2823 69.7875 52.6781 69.7875ZM70.0062 49.9125V73.1H65.6156V49.9125H70.0062ZM81.6625 62.8969V66.7094H73.5375V62.8969H81.6625Z" fill="white"/>
<defs>
<filter id="filter0_d_30_66" x="-2.47955e-05" y="-2.47955e-05" width="123.2" height="123.2" filterUnits="userSpaceOnUse" color-interpolation-filters="sRGB">
<feFlood flood-opacity="0" result="BackgroundImageFix"/>
<feColorMatrix in="SourceAlpha" type="matrix" values="0 0 0 0 0 0 0 0 0 0 0 0 0 0 0 0 0 0 127 0" result="hardAlpha"/>
<feMorphology radius="12" operator="dilate" in="SourceAlpha" result="effect1_dropShadow_30_66"/>
<feOffset/>
<feGaussianBlur stdDeviation="6.55"/>
<feComposite in2="hardAlpha" operator="out"/>
<feColorMatrix type="matrix" values="0 0 0 0 1 0 0 0 0 1 0 0 0 0 1 0 0 0 0.28 0"/>
<feBlend mode="normal" in2="BackgroundImageFix" result="effect1_dropShadow_30_66"/>
<feBlend mode="normal" in="SourceGraphic" in2="effect1_dropShadow_30_66" result="shape"/>
</filter>
</defs>
</svg>
