<svg width="168" height="282" viewBox="0 0 168 282" fill="none" xmlns="http://www.w3.org/2000/svg">
<path d="M69.2248 82.0898C69.2248 82.0898 70.3464 94.5352 68.3836 94.5352C66.4209 94.5352 43.9859 98.1306 47.912 104.768C51.8381 111.406 110.73 110.299 108.206 102.556C105.682 94.8117 85.7711 94.5352 85.7711 94.5352L85.2103 85.1322L69.2248 82.0898Z" fill="#FFC4C0"/>
<path d="M83.6414 93.3635C84.3652 93.4149 85.0877 93.4387 85.8095 93.4394L85.2103 85.1322L69.322 82.1084C72.2934 87.4909 77.2159 92.9082 83.6414 93.3635Z" fill="#FFA5A5"/>
<path d="M59.9576 73.9832C59.9576 73.9832 55.6585 83.6017 50.144 82.1676C44.6301 80.7336 47.5416 74.1299 51.2336 74.8604C54.9249 75.5909 45.8136 79.2584 42.8421 76.634C39.8706 74.0096 45.8703 72.6598 45.8703 72.6598C45.8703 72.6598 39.3014 75.1369 38.1074 72.436C36.9135 69.7351 42.8271 69.6425 42.8271 69.6425C42.8271 69.6425 28.1706 69.4464 26.02 60.5649C23.8695 51.6834 37.5382 53.3676 37.5382 53.3676C37.5382 53.3676 29.313 51.268 29.3795 48.8449C29.4467 46.4218 38.0364 50.3902 38.0364 50.3902C38.0364 50.3902 24.7153 46.4957 25.7801 36.6625C26.8449 26.8293 42.9217 33.6253 42.9217 33.6253C42.9217 33.6253 30.6862 28.2498 31.8319 24.4416C32.9776 20.6339 45.6949 29.0518 45.6949 29.0518C45.6949 29.0518 30.1665 22.875 35.001 14.0688C39.8354 5.26257 54.3303 13.6039 55.9076 19.3407C57.485 25.0769 42.0303 6.28248 50.6128 1.70574C59.1953 -2.87101 81.5339 1.62214 84.7258 16.8842C84.7258 16.8842 76.5012 3.22982 80.3634 2.90378C84.2256 2.57774 92.5115 12.4489 90.8591 20.787C89.2074 29.1251 89.0894 19.3105 89.0894 19.3105C89.0894 19.3105 89.7115 7.3114 99.2428 10.4689C108.775 13.6264 104.99 25.8036 101.74 28.6949C98.4909 31.5861 106.444 20.3651 109.22 21.5207C111.997 22.6763 105.908 29.6511 105.908 29.6511C105.908 29.6511 112.105 26.8582 114.539 31.5835C116.973 36.3088 114.562 47.1208 108.769 51.203C102.979 55.2833 59.9576 73.9832 59.9576 73.9832Z" fill="white"/>
<path d="M56.0022 69.5119C56.0022 69.5119 60.907 92.2311 90.4464 87.437C116.517 83.2062 116.06 38.3924 88.0748 28.6485C67.3332 21.4268 48.7675 37.0631 56.0022 69.5119Z" fill="#FFC4C0"/>
<path d="M57.6858 66.6767C57.6858 66.6767 55.4296 50.4886 46.9136 54.322C35.0518 59.662 57.5808 80.6043 57.6858 66.6767Z" fill="#FFC4C0"/>
<path d="M45.7927 61.1964C45.6251 60.6118 45.5867 59.981 45.7073 59.352C45.7771 59.0408 45.884 58.7276 46.0548 58.4395C46.2224 58.1508 46.4513 57.8839 46.7239 57.6775C46.9886 57.4556 47.3016 57.3006 47.6165 57.1759C47.777 57.1244 47.9393 57.0698 48.103 57.0254L48.5959 56.9425L48.7198 56.9225L48.7511 56.9174L48.7668 56.9148L48.7746 56.9135L48.7785 56.9129H48.8372L48.8946 56.9135L49.1235 56.9161C49.2839 56.9264 49.411 56.8994 49.5995 56.9405C49.9796 57.017 50.3663 57.127 50.6565 57.3064C50.989 57.4511 51.2349 57.6871 51.5146 57.8916C51.7448 58.1302 52.0121 58.354 52.1954 58.6228C52.3995 58.8813 52.5873 59.1475 52.7477 59.4241C52.927 59.6942 53.0594 59.981 53.2113 60.2614C53.4891 60.8292 53.7186 61.415 53.9057 62.0086C54.0935 62.6066 54.267 63.1899 54.3785 63.8259L54.4607 64.2973L54.027 64.4529C53.7336 64.5584 53.4154 64.6947 53.12 64.8355C52.8201 64.977 52.5338 65.1397 52.2586 65.3056C51.7194 65.6297 51.2094 66.0895 51.1788 66.503C51.1723 66.6065 51.1879 66.7172 51.2473 66.8323C51.3001 66.9467 51.3835 67.0651 51.4898 67.1731C51.585 67.2876 51.7181 67.3853 51.8387 67.4908C51.973 67.5853 52.1015 67.6901 52.2495 67.7731C52.5351 67.9506 52.8396 68.1152 53.1513 68.2663C53.463 68.4194 53.7825 68.5634 54.104 68.7075C53.7584 68.6444 53.4056 68.5949 53.0633 68.501C52.7183 68.4168 52.374 68.3158 52.0389 68.1756C51.868 68.1152 51.7057 68.0258 51.5374 67.9461C51.3764 67.8496 51.2062 67.7654 51.0575 67.631C50.9036 67.5101 50.7556 67.3622 50.635 67.1782C50.5104 66.9995 50.4224 66.7692 50.4015 66.5287C50.3826 66.2895 50.4257 66.0451 50.5169 65.8432C50.6004 65.6323 50.721 65.4606 50.8449 65.2985C51.0973 64.9789 51.3881 64.7262 51.6861 64.4979C51.9841 64.2683 52.3023 64.0793 52.6218 63.8999C52.9466 63.7211 53.2615 63.5622 53.6175 63.4098L53.2661 64.0368C53.1265 63.496 52.9707 62.9192 52.779 62.3745C52.5964 61.8214 52.359 61.2941 52.1276 60.77C51.9958 60.5179 51.8817 60.2523 51.7298 60.017C51.5929 59.7681 51.4364 59.5385 51.2694 59.3186C51.1136 59.0858 50.9206 58.9032 50.7465 58.6948C50.543 58.5347 50.3604 58.327 50.1316 58.2209C49.9092 58.0601 49.7019 58.019 49.4965 57.9264C49.3941 57.8775 49.2069 57.8852 49.0661 57.8614L48.8385 57.837L48.7818 57.8312C48.7309 57.8312 48.847 57.8312 48.8333 57.8312H48.83L48.8235 57.8318L48.8105 57.8325L48.785 57.8344L48.682 57.8421L48.2673 57.8691L47.8702 57.9508C47.6113 58.0145 47.3531 58.0993 47.1314 58.2408C46.8967 58.3662 46.7043 58.5514 46.5256 58.7546C46.3483 58.9604 46.2107 59.2054 46.1011 59.4672C45.8892 59.9958 45.7849 60.5919 45.7927 61.1964Z" fill="#C96965"/>
<path d="M47.9132 53.8801C47.9132 53.8801 54.3635 51.6673 55.7654 61.9005C57.1674 72.1337 68.6653 54.1566 54.9243 48.3484C41.1826 42.5408 47.9132 53.8801 47.9132 53.8801Z" fill="white"/>
<path d="M88.3923 56.0081C88.3689 59.7887 91.4584 62.8729 95.2919 62.8954C99.1261 62.9185 102.253 59.8717 102.276 56.091C102.3 52.3098 99.2102 49.2262 95.3766 49.2031C91.5425 49.1806 88.4158 52.2268 88.3923 56.0081Z" fill="white"/>
<path d="M89.049 56.6917C89.0321 59.4749 91.3059 61.745 94.128 61.7617C96.9502 61.7784 99.252 59.536 99.2689 56.7528C99.2859 53.9696 97.0121 51.6995 94.19 51.6828C91.3678 51.6654 89.066 53.9085 89.049 56.6917Z" fill="#331020"/>
<path d="M94.5662 53.6062C94.557 55.1168 95.7907 56.3483 97.3224 56.3579C98.8542 56.3669 100.103 55.1502 100.113 53.6396C100.122 52.1291 98.8881 50.8976 97.3564 50.8879C95.8246 50.8789 94.5759 52.0963 94.5662 53.6062Z" fill="white"/>
<path d="M88.5215 48.0217C88.5215 48.0217 88.483 47.6867 88.5514 47.1336C88.6271 46.587 88.8142 45.8218 89.2583 44.9967C89.6958 44.1717 90.3955 43.2784 91.4238 42.544C92.4378 41.8058 93.8234 41.2579 95.286 41.191C96.0144 41.1396 96.7414 41.2341 97.4241 41.3859C97.7619 41.4727 98.0879 41.582 98.4022 41.6977C98.7042 41.8347 99.0074 41.9627 99.2786 42.1241C99.5434 42.2932 99.8133 42.4379 100.047 42.6212C100.275 42.809 100.499 42.982 100.702 43.1691C101.087 43.5582 101.434 43.9331 101.686 44.3234C101.813 44.5202 101.937 44.7003 102.043 44.8822C102.137 45.0739 102.231 45.2469 102.306 45.4211C102.463 45.7613 102.575 46.0687 102.643 46.3394C102.785 46.8745 102.819 47.2018 102.819 47.2018C102.819 47.2018 102.471 47.1664 101.946 47.0674C101.695 47.0172 101.39 46.9555 101.04 46.8854C100.707 46.8082 100.343 46.7285 99.962 46.6552C99.591 46.5594 99.1913 46.5047 98.8059 46.4179C98.607 46.3948 98.4186 46.351 98.2236 46.3176C98.026 46.2996 97.8421 46.2649 97.6524 46.2378C97.462 46.2198 97.2787 46.2102 97.0981 46.1832C96.9175 46.1767 96.7408 46.1626 96.5673 46.1517C96.2211 46.1517 95.8879 46.1292 95.5579 46.1613C95.2267 46.1723 94.8948 46.205 94.5498 46.2578C94.2036 46.2977 93.8502 46.3838 93.4759 46.4526C92.7397 46.623 91.9611 46.8597 91.2373 47.1021C89.6085 47.6539 88.5215 48.0217 88.5215 48.0217Z" fill="white"/>
<path d="M66.7809 56.4408C66.7574 60.2221 69.8469 63.3056 73.6804 63.3281C77.5146 63.3513 80.6413 60.3044 80.6641 56.5238C80.6876 52.7425 77.5981 49.659 73.7645 49.6358C69.931 49.6127 66.8044 52.6602 66.7809 56.4408Z" fill="white"/>
<path d="M67.4375 57.1244C67.4205 59.9076 69.6943 62.1777 72.5164 62.1944C75.3386 62.2111 77.6404 59.9687 77.6573 57.1855C77.6743 54.4023 75.4005 52.1322 72.5784 52.1155C69.7562 52.0988 67.4544 54.3412 67.4375 57.1244Z" fill="#331020"/>
<path d="M72.9109 53.9894C72.9018 55.5 74.1355 56.7315 75.6672 56.7411C77.1989 56.7501 78.4477 55.5334 78.4574 54.0228C78.4666 52.5123 77.2328 51.2808 75.7011 51.2711C74.1694 51.2621 72.9201 52.4795 72.9109 53.9894Z" fill="white"/>
<path d="M81.5893 48.1908C81.5893 48.1908 80.2637 47.9233 78.2749 47.522C77.3646 47.3452 76.3636 47.1761 75.3777 47.0777C74.8821 47.0423 74.3937 46.9966 73.9132 46.9979C73.4319 46.9819 72.9625 47.0095 72.4975 47.0468C72.0333 47.088 71.5729 47.1497 71.1132 47.2455C70.6509 47.331 70.1925 47.4597 69.7217 47.5812C69.2613 47.7297 68.7925 47.8777 68.3386 48.0539C68.0993 48.1194 67.892 48.2397 67.6644 48.3194C67.4362 48.4005 67.219 48.4899 67.0104 48.587C66.5839 48.7664 66.1718 48.9336 65.8086 49.104C65.4252 49.2673 65.0913 49.4101 64.8155 49.5278C64.2463 49.7683 63.8707 49.8918 63.8707 49.8918C63.8707 49.8918 63.8974 49.5194 64.0317 48.8924C64.093 48.5747 64.2117 48.214 64.3708 47.8037C64.5195 47.3863 64.7425 46.9452 65.0196 46.4725C65.2922 45.9986 65.6567 45.5201 66.0831 45.0372C66.3042 44.8012 66.5389 44.5652 66.7945 44.3324C67.0567 44.1041 67.3403 43.8912 67.6357 43.6745C68.2421 43.2597 68.9262 42.8855 69.6799 42.616C70.4292 42.3376 71.241 42.1614 72.058 42.0881C73.698 41.9453 75.3347 42.2636 76.6512 42.8591C77.9814 43.4417 79.0208 44.2546 79.7655 45.0558C80.5173 45.8539 80.979 46.6475 81.2483 47.2275C81.5137 47.8153 81.5893 48.1908 81.5893 48.1908Z" fill="white"/>
<path d="M87.1743 68.4457C87.1743 68.4457 72.5915 61.624 69.5065 73.0553C66.4216 84.4865 76.6108 77.1118 73.2455 76.3742C73.2455 76.3742 71.6564 80.7072 76.4237 81.3522C81.1909 81.9978 81.3781 77.1118 81.3781 77.1118L79.6957 77.2963C79.6957 77.2963 78.8546 81.7213 80.8173 81.9059C82.78 82.0905 82.9672 78.0339 82.9672 78.0339C82.9672 78.0339 82.5935 81.7213 85.2109 81.7213C87.8283 81.7213 87.3608 77.9413 87.3608 77.9413C87.3608 77.9413 86.9872 81.7213 90.9133 81.4448C94.8394 81.1683 94.7461 76.5587 94.7461 76.5587C94.7461 76.5587 93.4374 80.5226 94.9333 80.5226C96.4291 80.5226 96.3352 77.0192 96.3352 77.0192C96.3352 77.0192 96.896 80.6146 98.298 80.43C99.6999 80.2455 102.972 72.0405 98.2047 69.2753C93.4374 66.5101 87.1743 68.4457 87.1743 68.4457Z" fill="white"/>
<path d="M87.9998 56.8859L88.1094 60.3327C88.1094 60.3327 96.4291 58.9501 94.1853 66.3249C94.1853 66.3249 92.4091 71.3955 85.8656 67.8921" fill="#FFC4C0"/>
<path d="M87.9998 56.8859C88.1772 58.0305 88.2991 59.1771 88.4126 60.3237L88.0592 60.0382C88.9499 59.8575 89.8347 59.7951 90.7457 59.8652C91.6495 59.9289 92.5858 60.1527 93.4185 60.6838C93.8326 60.9475 94.2062 61.3018 94.482 61.7237C94.7676 62.1417 94.9333 62.6214 95.0304 63.0941C95.1361 63.5712 95.1348 64.0439 95.11 64.5082C95.065 64.968 94.9861 65.4169 94.8785 65.8541C94.8126 66.0837 94.7709 66.2554 94.6848 66.5313C94.587 66.768 94.4801 66.9847 94.3503 67.1815C94.096 67.5814 93.8013 67.9564 93.442 68.2721C93.097 68.6001 92.6875 68.8631 92.2539 69.0657C92.0387 69.1692 91.804 69.2284 91.581 69.3087C91.3534 69.3756 91.1161 69.3988 90.8859 69.4438C90.4216 69.4869 89.9508 69.4978 89.5028 69.4129C89.0457 69.3718 88.6186 69.2271 88.1928 69.0965C87.7729 68.9525 87.3771 68.7518 86.9793 68.5731C86.6005 68.3525 86.2314 68.121 85.8656 67.8933C86.2777 68.0367 86.6859 68.1769 87.085 68.3274C87.5043 68.4232 87.9066 68.5628 88.32 68.6361C88.7373 68.6914 89.1449 68.7814 89.5563 68.7679C89.9658 68.8007 90.3668 68.7268 90.7542 68.6657C90.9426 68.6091 91.1376 68.5769 91.3182 68.5055C91.493 68.4213 91.6781 68.3621 91.8425 68.2631C92.1698 68.0644 92.488 67.8515 92.7488 67.5699C93.0227 67.3049 93.2457 66.9853 93.4322 66.6548C93.5274 66.4882 93.607 66.3185 93.6709 66.1603L93.8156 65.604C93.905 65.2111 93.9656 64.8182 93.9982 64.4291C94.0041 64.0439 94.0217 63.6568 93.9434 63.2979C93.8756 62.9385 93.7641 62.5918 93.5685 62.2986C93.3768 62.0034 93.129 61.7443 92.831 61.5269C92.2318 61.0903 91.4467 60.8568 90.6427 60.7211C90.2384 60.6549 89.8243 60.6202 89.407 60.6067C88.9929 60.5887 88.5626 60.5932 88.1596 60.6273L87.7951 60.6575L87.8062 60.3411C87.8459 59.1913 87.8955 58.0395 87.9998 56.8859Z" fill="#C96965"/>
<path d="M54.3622 267.667L51.3034 279.283C51.3034 279.283 4.40659 282.878 39.3242 274.858L41.8731 257.434L54.3622 267.667Z" fill="#331020"/>
<path d="M89.3737 267.547L91.3684 279.386C91.3684 279.386 137.753 287.096 103.7 276.033L102.739 258.455L89.3737 267.547Z" fill="#331020"/>
<path d="M52.3988 157.869C52.3988 157.869 92.7808 160.636 109.046 157.317C109.046 157.317 112.973 231.989 105.683 271.538C105.683 271.538 97.5487 274.028 88.2946 273.751C88.2946 273.751 84.9292 206.821 81.8443 191.057L78.76 191.611C78.76 191.611 64.1771 252.734 54.3616 272.646C54.3616 272.646 48.4727 272.921 36.9748 268.219C36.9748 268.219 46.51 188.845 52.3988 157.869Z" fill="#C96965"/>
<path d="M80.9718 190.981L81.0057 191.208L81.8449 191.057C83.1001 197.472 84.4017 212.358 85.5043 227.761L97.2689 189.398L80.9718 190.981Z" fill="#BC5353"/>
<path d="M61.1085 161.343C54.8708 160.898 51.2773 160.358 51.2773 160.358L50.4361 165.89C53.7232 166.619 57.3369 167.121 61.1085 167.451V161.343Z" fill="#331020"/>
<path d="M91.3462 161.566C80.1333 162.163 70.5316 161.923 63.5447 161.503C63.5257 163.551 63.5831 165.597 63.6588 167.644C72.9312 168.256 82.9111 167.908 91.2673 167.317C91.2295 165.398 91.2308 163.481 91.3462 161.566Z" fill="#331020"/>
<path d="M95.3042 161.325C95.1686 163.224 95.0936 165.123 95.0545 167.026C104.096 166.271 110.449 165.336 110.449 165.336V159.805C105.188 160.503 100.117 160.993 95.3042 161.325Z" fill="#331020"/>
<path d="M72.03 160.911V169.761L85.7711 169.171V160.911H72.03Z" fill="#E5B452"/>
<path d="M63.5212 93.4781L65.5798 160.082L95.867 158.699L89.9058 95.0851L76.7973 100.067L63.5212 93.4781Z" fill="#89A2E5"/>
<path d="M65.2994 91.7687L66.9817 218.437C66.9817 218.437 50.1557 217.608 37.2552 211.523L43.9858 96.1937C43.9858 96.1937 51.8381 91.7687 65.2994 91.7687Z" fill="white"/>
<path opacity="0.2" d="M43.2862 108.181L42.1692 127.32C45.7699 121.706 48.9918 115.919 50.4035 109.471C48.1193 108.885 45.6591 108.548 43.2862 108.181Z" fill="#A0BFFE"/>
<path d="M27.4402 153.997C27.4402 153.997 39.1912 162.714 41.9246 162.096C46.8145 160.99 47.0708 158.698 47.0708 158.698H45.6688C45.6688 158.698 50.8052 163.526 51.6026 163.302C52.316 163.1 52.4177 161.995 47.9126 157.592C47.9126 157.592 54.4861 162.668 55.1682 161.995C55.9832 161.192 54.713 160.514 50.1557 155.933C50.1557 155.933 56.6966 160.342 57.511 159.684C58.6319 158.78 57.5593 158.623 52.2136 154.56C52.2136 154.56 59.9178 158.805 58.4279 155.967C58.0001 155.152 54.6582 153.656 50.7165 151.23C50.7165 151.23 48.7531 149.295 42.8643 152.89L29.6834 142.658L27.4402 153.997Z" fill="#FFC4C0"/>
<path d="M30.2448 157.039L36.6944 160.635L43.1447 151.785L33.8905 144.594L30.2448 157.039Z" fill="#A0BFFE"/>
<path d="M66.1405 92.0459C66.1405 92.0459 47.9119 88.4505 37.5356 93.7057C30.3009 97.3692 -3.12806 118.597 0.237261 127.724C3.60259 136.85 23.7939 156.487 33.6095 159.806L42.578 147.089L22.673 129.659L51.8387 111.406L66.1405 92.0459Z" fill="white"/>
<path opacity="0.2" d="M65.2993 91.7687L59.6902 91.4929L52.6792 105.597L61.0928 109.193L54.923 113.065L65.8601 141.828L65.2993 91.7687Z" fill="#A0BFFE"/>
<path d="M146.648 95.7886C146.648 95.7886 159.688 70.6714 161.725 71.2746C163.763 71.8772 159.689 82.9278 159.689 82.9278C159.689 82.9278 162.949 81.3201 162.949 84.3342C162.949 84.3342 166.412 83.7316 164.579 86.745C164.579 86.745 167.431 85.1374 167.227 88.9553C167.023 92.7732 161.725 101.214 157.243 98.1995L155.613 102.017L146.648 95.7886Z" fill="#FFC4C0"/>
<path d="M159.077 83.9335C159.077 83.9335 154.594 90.2627 156.53 90.8659C158.465 91.4684 161.419 85.8428 161.419 85.8428C161.419 85.8428 158.057 92.8755 159.28 92.8755C160.503 92.8755 163.151 88.5553 163.151 88.5553C163.151 88.5553 160.808 94.0812 161.623 94.2819C162.438 94.4831 165.494 90.4639 165.494 90.4639" fill="#FFC4C0"/>
<path d="M159.077 83.9335C158.395 85.0062 157.744 86.0975 157.179 87.2273C156.9 87.7933 156.645 88.3707 156.446 88.9585C156.35 89.2524 156.268 89.5514 156.238 89.8459C156.209 90.1334 156.239 90.4395 156.406 90.5778C156.445 90.6144 156.492 90.644 156.55 90.6614L156.589 90.6794C156.572 90.6736 156.618 90.6845 156.629 90.6858L156.747 90.7083C156.859 90.7083 156.989 90.7044 157.124 90.6575C157.39 90.5765 157.646 90.4144 157.882 90.2279C158.357 89.8498 158.766 89.3733 159.148 88.8813C159.913 87.8955 160.582 86.8151 161.172 85.7155C161.243 85.5817 161.412 85.5303 161.548 85.601C161.679 85.6692 161.731 85.8274 161.671 85.9586C161.199 86.9727 160.75 88.0035 160.336 89.0415C160.128 89.5604 159.933 90.0839 159.755 90.6086C159.577 91.1295 159.404 91.6658 159.328 92.1771C159.308 92.3044 159.305 92.4253 159.311 92.5263C159.319 92.5629 159.328 92.615 159.331 92.6067C159.336 92.615 159.292 92.5745 159.285 92.5829L159.282 92.5841L159.281 92.5854L159.28 92.5861C159.257 92.588 159.331 92.5822 159.229 92.5912L159.255 92.5861L159.307 92.5758L159.412 92.5558C159.497 92.5488 159.509 92.5108 159.555 92.4915C159.625 92.4639 159.739 92.3796 159.841 92.305C160.254 91.9867 160.627 91.5668 160.982 91.1443C161.689 90.289 162.332 89.3611 162.929 88.4215L162.932 88.4164C163.008 88.2974 163.168 88.2614 163.288 88.336C163.398 88.4035 163.438 88.5386 163.389 88.6524C163.008 89.5308 162.641 90.4221 162.312 91.3218C162.147 91.7713 161.992 92.2247 161.857 92.6812C161.791 92.9095 161.731 93.1385 161.684 93.3674C161.638 93.5925 161.6 93.8343 161.626 94.024C161.631 94.0671 161.646 94.1134 161.656 94.1172C161.658 94.1301 161.661 94.1256 161.661 94.1256C161.651 94.1243 161.682 94.132 161.639 94.1256L161.662 94.1282L161.708 94.1327C161.749 94.1307 161.866 94.0889 161.959 94.0394C162.156 93.932 162.345 93.786 162.528 93.6343C162.894 93.3282 163.236 92.9861 163.571 92.6388C164.236 91.9385 164.872 91.2073 165.493 90.4639C164.932 91.2536 164.34 92.0208 163.706 92.7584C163.388 93.1263 163.063 93.4889 162.702 93.8259C162.52 93.9938 162.333 94.1571 162.109 94.296C161.989 94.359 161.882 94.433 161.678 94.4413C161.651 94.4516 161.45 94.4072 161.409 94.3198C161.334 94.2355 161.321 94.1545 161.305 94.0831C161.258 93.795 161.301 93.552 161.338 93.305C161.38 93.0607 161.435 92.8214 161.495 92.5848C161.617 92.1121 161.759 91.6472 161.911 91.1867C162.216 90.2652 162.549 89.3585 162.911 88.4563L163.371 88.6865C162.769 89.6562 162.135 90.5951 161.412 91.4896C161.046 91.9334 160.672 92.3726 160.191 92.7533C160.063 92.8446 159.956 92.9404 159.762 93.024C159.678 93.0613 159.574 93.116 159.514 93.1198L159.409 93.141L159.357 93.152L159.331 93.1571C159.227 93.1661 159.298 93.1591 159.272 93.161L159.265 93.1603L159.251 93.159L159.221 93.1552C159.074 93.1513 158.893 93.0317 158.835 92.914C158.755 92.788 158.749 92.696 158.728 92.5964C158.711 92.4176 158.72 92.2562 158.74 92.1057C158.823 91.5031 158.998 90.9617 159.176 90.4183C159.362 89.8787 159.568 89.3501 159.783 88.826C160.215 87.7778 160.677 86.7489 161.167 85.7251L161.665 85.9682C161.042 87.0981 160.359 88.1797 159.55 89.1939C159.136 89.6916 158.695 90.1765 158.156 90.579C157.886 90.7771 157.589 90.9585 157.236 91.0549C157.066 91.1057 156.869 91.1205 156.663 91.0967L156.545 91.0703L156.468 91.0523L156.399 91.0215C156.303 90.9861 156.216 90.9302 156.139 90.8549C155.827 90.5405 155.851 90.1276 155.885 89.8074C155.932 89.4723 156.03 89.1604 156.14 88.8563C156.361 88.2473 156.664 87.6814 156.974 87.1238C157.608 86.0139 158.31 84.9502 159.077 83.9335Z" fill="#C96965"/>
<path d="M153.983 95.9899C153.983 95.9899 144.408 93.9803 146.241 87.3496C148.075 80.7189 150.724 81.5227 152.761 81.9246C154.798 82.3265 166.005 95.3873 151.539 86.5464C151.539 86.5464 159.077 87.3496 153.983 95.9899Z" fill="#FFC4C0"/>
<path d="M152.761 81.9239C154.798 82.3258 166.004 95.3866 151.538 86.5457C151.538 86.5457 159.077 89.5598 155.205 93.9802" fill="#FFC4C0"/>
<path d="M152.761 81.9246C153.131 82.005 153.455 82.2217 153.764 82.4314C154.071 82.6481 154.365 82.8822 154.652 83.124C155.229 83.6063 155.77 84.1265 156.282 84.6738C156.798 85.2191 157.291 85.7843 157.753 86.3811C158.213 86.9798 158.644 87.6017 158.94 88.3412C159.009 88.5296 159.072 88.7258 159.09 88.954C159.11 89.1695 159.062 89.4872 158.814 89.6884C158.57 89.8711 158.314 89.8865 158.098 89.8897C157.881 89.8833 157.678 89.8524 157.483 89.8081C156.708 89.6241 156.008 89.3219 155.322 88.9978C153.962 88.329 152.673 87.5573 151.397 86.7689L151.391 86.765C151.267 86.6885 151.23 86.5271 151.307 86.4049C151.378 86.2943 151.518 86.2531 151.636 86.3039C152.438 86.6454 153.173 87.0692 153.872 87.5669C154.566 88.0647 155.215 88.6422 155.718 89.3457C155.967 89.6968 156.176 90.0839 156.294 90.5026C156.352 90.7109 156.398 90.9244 156.409 91.1405C156.43 91.3546 156.418 91.5733 156.387 91.7842C156.362 91.9984 156.297 92.2022 156.235 92.4061C156.15 92.6009 156.077 92.8009 155.964 92.9803C155.764 93.354 155.482 93.6716 155.205 93.9816C155.455 93.6478 155.696 93.3057 155.864 92.9302C155.963 92.7488 156.019 92.5508 156.087 92.3598C156.132 92.1617 156.18 91.9649 156.189 91.7636C156.204 91.5643 156.202 91.3624 156.167 91.1662C156.144 90.9688 156.087 90.7759 156.021 90.5887C155.884 90.2158 155.686 89.8634 155.436 89.5463C154.939 88.9097 154.299 88.3836 153.613 87.9348C152.926 87.4904 152.182 87.1039 151.437 86.7888L151.676 86.3239C152.956 87.0853 154.249 87.8293 155.586 88.4589C156.252 88.7695 156.929 89.0833 157.613 89.2524C157.937 89.338 158.333 89.3643 158.462 89.2601C158.578 89.2036 158.557 88.8344 158.432 88.5245C158.19 87.8782 157.772 87.2608 157.366 86.6564C156.948 86.0544 156.49 85.4731 156.011 84.911C155.527 84.3522 155.029 83.803 154.508 83.277C154.245 83.0159 153.974 82.7619 153.69 82.524C153.402 82.2957 153.119 82.0417 152.761 81.9246Z" fill="#C96965"/>
<path d="M153.534 105.669L156.564 99.7891L143.756 93.5873L139.176 104.293L153.534 105.669Z" fill="#A0BFFE"/>
<path d="M92.8603 104.831C92.8603 104.831 88.6408 105.833 96.5275 114.308C102.026 120.217 125.522 146.383 133.554 140.765C141.586 135.147 153.984 115.682 157.305 104.752L139.763 96.0773L129.503 118.917L110.046 96.0175L92.8603 104.831Z" fill="white"/>
<path opacity="0.2" d="M113.02 122.592C109.421 119.983 105.281 119.065 101.074 119.189C106.021 124.418 113.424 131.875 120.166 136.714C119.554 131.295 117.578 125.899 113.02 122.592Z" fill="#A0BFFE"/>
<path d="M88.1243 92.444L92.4325 219.052C92.4325 219.052 109.201 217.45 121.8 210.778L109.624 95.8838C109.624 95.8838 101.571 91.8247 88.1243 92.444Z" fill="white"/>
<path opacity="0.2" d="M88.1243 92.4439L93.7139 91.9095L101.384 105.677L93.1498 109.655L99.4957 113.24L89.9306 142.474L88.1243 92.4439Z" fill="#A0BFFE"/>
<path d="M68.9451 102.279L73.9934 109.193L67.8242 149.02L78.7594 160.635L88.2952 148.19L80.4436 108.916L84.9299 100.066L72.03 98.9603L68.9451 102.279Z" fill="#331020"/>
<path d="M77.6384 99.2367L67.3925 90.2633L64.0304 92.1719L69.7862 107.81L77.6384 99.2367Z" fill="#A0BFFE"/>
<path d="M86.3403 90.3636L90.1099 92.4736L83.2475 106.981L76.7972 99.5133L86.3403 90.3636Z" fill="#A0BFFE"/>
</svg>
