<svg width="48" height="50" viewBox="0 0 48 50" fill="none" xmlns="http://www.w3.org/2000/svg">
<path d="M24.7829 30.1555C26.5324 30.2738 28.0363 29.749 29.2937 28.5794C30.5505 27.4107 31.2395 25.9321 31.3601 24.1437C31.4832 22.319 31.0132 20.8278 29.9503 19.6703C28.8869 18.5137 27.5365 17.8794 25.8984 17.7688C24.7815 17.6935 23.7022 17.8924 22.66 18.364C21.6183 18.8366 20.758 19.5269 20.0797 20.4354C19.4008 21.3439 19.024 22.3566 18.9487 23.4746C18.8358 25.1511 19.3323 26.6538 20.4401 27.9818C21.5479 29.3107 22.9958 30.0348 24.7829 30.1555Z" fill="#F9C363"/>
<g opacity="0.4">
<path d="M25.0806 25.3301C25.9554 25.389 26.7076 25.1269 27.3363 24.5418C27.9644 23.9573 28.3094 23.2182 28.3697 22.3237C28.4315 21.4114 28.196 20.6656 27.6648 20.0873C27.1331 19.509 26.4581 19.1918 25.6389 19.1363C25.0802 19.0986 24.5407 19.1981 24.0197 19.4341C23.4986 19.6702 23.0687 20.0153 22.7295 20.4696C22.3903 20.9238 22.2017 21.4302 22.164 21.9892C22.1076 22.8272 22.3561 23.5788 22.9099 24.243C23.4629 24.9077 24.1871 25.2698 25.0806 25.3301Z" fill="#FFE967"/>
</g>
<path d="M20.1815 31.5775C26.1932 34.6674 31.5888 36.524 36.3659 37.1428C41.141 37.7626 44.0639 37.0328 45.1322 34.9522C46.2221 32.8297 45.1375 30.1361 41.8812 26.8734C38.6215 23.6102 34.1788 20.5318 28.5497 17.6389C24.712 15.6665 20.9033 14.1068 17.1259 12.9589C13.3481 11.8119 10.1202 11.2476 7.44245 11.2684C4.76322 11.2882 3.08997 11.948 2.42221 13.248C1.42106 15.1977 2.5935 17.9507 5.94386 21.5074C9.2923 25.0646 14.0399 28.421 20.1815 31.5775Z" stroke="#435992" stroke-width="1.4776" stroke-miterlimit="10"/>
<path d="M26.38 31.9202C32.8149 29.8517 37.9422 27.3474 41.7577 24.4056C45.5722 21.4659 47.1234 18.8818 46.4083 16.6546C45.6788 14.3829 43.0083 13.2456 38.4001 13.2422C33.789 13.2407 28.472 14.2071 22.4468 16.1438C18.3394 17.4641 14.5437 19.0556 11.0616 20.9165C7.57951 22.7779 4.89835 24.6629 3.01956 26.5716C1.13932 28.4808 0.422346 30.1312 0.869126 31.5229C1.5393 33.6102 4.31406 34.7272 9.19631 34.8721C14.0771 35.0183 19.8061 34.0331 26.38 31.9202Z" stroke="#435992" stroke-width="1.4776" stroke-miterlimit="10"/>
<path d="M33.1352 25.3547C33.9511 18.642 33.8242 12.9352 32.7512 8.23686C31.6791 3.54044 29.9832 1.04911 27.6624 0.766714C25.2949 0.478528 23.1449 2.42921 21.2126 6.61491C19.2812 10.8045 17.9327 16.0396 17.1684 22.3251C16.6473 26.6103 16.5035 30.725 16.7347 34.6679C16.9667 38.6108 17.5554 41.8363 18.5015 44.3426C19.4477 46.8504 20.6452 48.1928 22.096 48.369C24.271 48.6336 26.4466 46.58 28.6216 42.2046C30.7971 37.8302 32.3015 32.2118 33.1352 25.3547Z" stroke="#435992" stroke-width="1.4776" stroke-miterlimit="10"/>
<path d="M21.3785 8.11094C22.0236 8.15439 22.578 7.9613 23.0412 7.52974C23.5043 7.09916 23.7586 6.55416 23.803 5.89476C23.8484 5.22233 23.6751 4.6725 23.2834 4.24578C22.8911 3.81953 22.3937 3.58541 21.7896 3.54486C21.378 3.51687 20.98 3.59024 20.5959 3.7645C20.2119 3.93877 19.8949 4.19316 19.645 4.52817C19.395 4.86318 19.2561 5.23633 19.2281 5.64809C19.1861 6.26598 19.3695 6.81966 19.7776 7.30962C20.1858 7.79959 20.7195 8.06653 21.3785 8.11094Z" fill="#C96965"/>
<path d="M37.9277 39.1312C38.5728 39.1747 39.1267 38.9816 39.5904 38.55C40.0536 38.1194 40.3078 37.5744 40.3522 36.915C40.3976 36.2426 40.2244 35.6928 39.8326 35.266C39.4403 34.8398 38.9429 34.6057 38.3393 34.5651C37.9277 34.5371 37.5297 34.6105 37.1456 34.7848C36.7616 34.959 36.4446 35.2134 36.1947 35.548C35.9447 35.883 35.8058 36.2561 35.7778 36.6679C35.7363 37.2858 35.9192 37.8394 36.3273 38.3294C36.7355 38.8198 37.2691 39.0868 37.9277 39.1312Z" fill="#C96965"/>
<path d="M9.81677 37.2335C10.4614 37.277 11.0158 37.0834 11.4794 36.6528C11.9426 36.2222 12.1969 35.6772 12.2412 35.0178C12.2866 34.3454 12.1134 33.7956 11.7216 33.3688C11.3294 32.9426 10.8319 32.7085 10.2283 32.6679C9.81677 32.6399 9.41872 32.7133 9.03466 32.8876C8.65061 33.0618 8.33363 33.3162 8.0837 33.6512C7.83377 33.9862 7.69481 34.3594 7.66683 34.7716C7.62533 35.3895 7.8082 35.9432 8.21638 36.4332C8.62408 36.9222 9.15818 37.1891 9.81677 37.2335Z" fill="#C96965"/>
</svg>
