<svg width="774" height="671" viewBox="0 0 774 671" fill="none" xmlns="http://www.w3.org/2000/svg">
<path d="M771.206 178.293L769.787 176.154L721.54 125.882C718.691 121.625 720.564 115.4 725.769 113.83C733.089 111.607 740.044 107.671 746.025 101.996C766.141 82.8074 767.038 51.2335 747.831 32.0696C729.527 11.9985 697.972 11.4898 677.885 30.7392C671.947 36.4319 667.706 43.2084 665.173 50.4319C663.361 55.5543 657.066 57.1456 652.952 54.116L604.873 3.65328L602.789 2.15094C599.76 -0.75175 594.9 -0.730407 591.756 2.29916L535.994 55.7879C532.534 56.018 529.129 54.0947 528.069 50.407C523.331 34.0201 509.698 19.873 486.584 15.404C484.215 14.938 481.694 14.9166 479.3 15.3411C431.96 23.6662 419.77 72.8804 445.212 99.5833C450.599 105.237 457.075 109.239 464.031 111.587C467.782 112.859 469.448 116.67 468.775 120.251L412.693 174.057C409.434 177.175 409.27 182.231 412.287 185.346L463.001 238.222L463.903 238.922L464.205 239.24C468.507 243.748 476.026 241.358 477.602 235.172C482.249 217.304 497.021 201.357 521.682 196.503C526.292 196.168 530.934 196.464 535.447 197.419C545.826 200.254 554.061 205.208 560.198 211.454C566.154 217.874 570.747 226.324 573.092 236.826C573.861 241.358 573.965 245.996 573.419 250.61C567.438 275.028 550.843 289.067 532.787 292.878C526.553 294.211 523.82 301.603 528.135 306.093L528.438 306.408L529.105 307.363L579.625 360.388C582.624 363.545 587.69 363.587 590.931 360.494L647.196 306.853C650.814 306.347 654.545 308.21 655.648 312C657.702 319.075 661.398 325.724 666.808 331.356C692.341 357.974 742.02 348.001 752.483 301.094C753.01 298.701 753.106 296.183 752.738 293.811C749.308 270.514 735.778 256.242 719.65 250.781C716.02 249.55 714.209 246.058 714.633 242.627L770.558 189.324C773.713 186.318 773.943 181.471 771.206 178.293Z" fill="#CBCAD7"/>
<path d="M514.974 669.817H515.399L516.556 669.986L589.791 670.304C594.153 670.325 597.679 666.684 597.704 662.215L598.02 584.474C600.159 581.535 604.067 580.11 607.58 581.957C614.094 585.364 621.455 587.313 629.261 587.313C666.142 587.358 693.377 544.62 666.79 504.559C665.446 502.548 663.688 500.72 661.725 499.327C642.542 485.667 622.911 485.541 607.781 493.396C604.369 495.156 600.613 494.011 598.425 491.345L598.734 414.091C598.764 409.75 595.425 406.194 591.239 406.002L588.7 405.515L519.021 405.472C513.992 404.582 510.786 398.928 513.277 394.078C516.725 387.262 518.719 379.513 518.754 371.293C518.875 343.488 496.729 320.961 469.598 321.53C442.435 320.809 420.198 343.233 420.168 371.042C420.186 379.276 422.101 387.028 425.579 393.866C428.021 398.716 424.785 404.369 419.744 405.242L350.041 404.924L347.526 405.388C344.533 405.515 342.02 407.399 340.783 410.048C341.207 411.254 341.474 412.568 341.474 413.925L341.341 493.693L336.973 492.826C334.992 493.692 332.726 493.841 330.563 492.699L329.211 492.105C326.861 492.126 324.442 492.296 321.946 492.656L321.311 492.742L320.674 492.636C317.917 492.127 315.464 491.682 313.101 491.682C290.749 491.724 272.245 508.98 269.445 531.407C269.196 533.334 269.027 535.285 269.027 537.297C269.027 545.343 271.183 553.941 275.83 562.645C276.83 564.529 277.829 566.435 279.084 568.341C280.162 569.95 281.58 571.413 283.15 572.51C293.414 579.777 303.49 582.7 312.869 582.719C315.377 582.7 317.838 582.489 320.249 582.106L320.885 581.979L321.52 582.086C323.556 582.423 325.144 582.74 326.617 582.912C327.852 582.404 329.101 581.895 330.301 581.258C332.84 579.947 335.579 580.37 337.693 581.788L341.182 581.089L341.056 662.068C341.056 663.104 340.874 664.123 340.637 665.097C341.915 667.784 344.533 669.69 347.647 669.69L420.901 669.736L422.021 669.584H422.464C428.704 669.605 432.17 662.534 428.807 657.09C419.144 641.379 417.895 619.693 431.486 598.538C434.437 594.957 437.859 591.846 441.672 589.241C450.906 583.712 460.194 581.216 468.955 581.112C477.705 581.257 486.963 583.821 496.173 589.371C499.959 591.995 503.383 595.128 506.322 598.729C519.81 619.945 518.415 641.63 508.666 657.302C505.316 662.721 508.739 669.817 514.974 669.817Z" fill="#ACC484"/>
<path d="M255.745 395.347L255.581 395.772L255.509 395.924L255.091 397.593C255.073 399.353 256.502 401.131 258.265 401.51L327.435 401.385C328.429 401.385 329.259 401.66 330.125 401.872V401.851C332.555 401.957 334.778 402.806 336.602 404.181L337.044 401.999L337.36 324.262C339.505 321.318 343.413 319.921 346.92 321.742C353.422 325.15 360.777 327.098 368.593 327.098C405.492 327.141 432.716 284.407 406.129 244.342C404.771 242.331 403.032 240.51 401.069 239.113C381.892 225.452 362.244 225.325 347.108 233.184C343.714 234.938 339.94 233.796 337.758 231.127L338.085 153.877C338.091 149.539 334.758 145.977 330.572 145.788L328.04 145.303L258.361 145.257C253.32 144.37 250.114 138.71 252.598 133.867C256.076 127.044 258.051 119.295 258.1 111.075C258.227 83.2556 236.081 60.7431 208.925 61.3123C181.781 60.5973 159.538 83.0185 159.502 110.823C159.514 119.06 161.447 126.813 164.913 133.653C167.355 138.498 164.131 144.156 159.097 145.002L89.388 144.705L86.8671 145.169C82.6743 145.342 79.3293 148.877 79.3293 153.243L79.2629 230.491C77.0456 233.137 73.2832 234.281 69.9027 232.482C54.8094 224.56 35.1546 224.582 15.91 238.157C13.9405 239.536 12.1832 241.356 10.8137 243.367C-15.9853 283.284 11.0568 326.146 47.944 326.292C55.7545 326.335 63.1286 324.429 69.6347 321.039C73.1671 319.222 77.0812 320.661 79.1775 323.627L79.1171 401.364C79.1171 402.336 79.3412 403.248 79.6507 404.117C81.4625 402.781 83.668 401.957 86.0857 401.851V401.872C86.9394 401.66 87.7884 401.385 88.7821 401.385L157.958 401.51C159.715 401.131 161.151 399.353 161.115 397.617L160.709 395.924L160.631 395.733L160.541 395.542L160.449 395.308C156.929 388.17 154.887 380.121 154.833 371.59H154.821V371.36V371.315V371.188C154.821 365.789 155.838 360.772 157.184 356.067C163.541 334.024 183.232 317.678 206.959 317.678L208.212 317.699L209.268 317.678C232.971 317.678 252.68 334.026 259.037 356.067C260.381 360.772 261.381 365.789 261.381 371.208V371.315C261.38 379.977 259.308 388.129 255.745 395.347Z" fill="#ACC484"/>
<path d="M279.768 496.128C288.875 487.998 300.751 483.02 313.795 482.981L313.814 486.876V482.981C316.977 482.981 319.759 483.529 322.327 483.974C324.957 483.635 327.581 483.405 330.204 483.384C331.494 483.384 332.79 483.444 334.093 483.569L334.19 413.224C334.19 411 332.61 409.395 330.755 409.181L330.494 409.115L329.894 409.094L329.318 408.885L328.149 408.651L258.119 408.776L257.78 408.713C252.303 407.719 248.527 403.208 248.019 397.937L247.824 396.879C247.824 395.225 248.218 393.532 248.999 391.902H248.963L249.12 391.498L249.21 391.372C252.319 385.1 254.112 378.094 254.112 370.595V370.489C254.112 366.087 253.294 361.831 252.076 357.572C246.598 338.686 229.882 324.94 209.972 324.94L208.955 324.962H208.846H208.73L207.67 324.94C198.303 324.94 189.705 328.055 182.592 333.244C174.576 339.089 168.463 347.558 165.579 357.571C164.87 359.985 164.373 362.42 164.015 364.877C163.736 366.719 163.512 368.561 163.512 370.446V370.467V370.594C163.512 378.091 165.318 385.099 168.445 391.345L168.541 391.519L168.607 391.709L168.705 391.943L168.674 391.961C169.407 393.549 169.813 395.245 169.813 396.897L169.632 397.852C169.159 403.165 165.367 407.718 159.871 408.713L159.538 408.776L89.5078 408.651L88.9387 408.757L88.3268 408.884L87.7577 409.092L87.1458 409.114C85.1763 409.199 83.4487 410.895 83.4309 413.203L83.5637 491.892L82.6483 493.016C80.4547 495.64 77.2259 497.315 73.6568 497.315C71.8758 497.315 70.0285 496.892 68.3613 496C62.3994 492.91 55.7165 491.153 48.5784 491.153C39.1565 491.153 28.8927 494.2 18.5507 501.549C16.9867 502.652 15.5389 504.109 14.4848 505.721C7.40117 516.331 4.42615 526.94 4.42615 536.746C4.42615 561.985 24.2268 582.316 48.4575 582.355H48.5357C55.6549 582.355 62.3686 580.619 68.3305 577.508C69.9609 576.663 71.7359 576.238 73.4624 576.238C77.3706 576.238 80.8235 578.272 82.9744 581.255L83.7309 582.315L83.853 661.322C83.853 663.67 85.6767 665.431 87.7304 665.431L160.688 665.306L161.845 665.133H162.142H162.566C163.735 665.112 164.487 664.708 165.153 664.033C165.789 663.312 166.196 662.275 166.196 661.173L165.504 658.739C160.39 650.477 157.422 640.653 157.422 630.15C157.422 619.119 160.707 607.34 168.019 595.904L168.159 595.695L168.298 595.528C171.491 591.65 175.212 588.263 179.325 585.445L179.423 585.381L179.508 585.318C189.293 579.432 199.291 576.699 208.761 576.53H208.791H208.882C218.359 576.699 228.344 579.432 238.118 585.318L238.215 585.361L238.318 585.446C242.433 588.264 246.147 591.651 249.334 595.529L249.486 595.72L249.618 595.904C256.925 607.34 260.222 619.119 260.203 630.17C260.203 640.652 257.259 650.476 252.127 658.76L251.424 661.171C251.418 662.274 251.843 663.311 252.484 664.031C253.133 664.707 253.902 665.109 255.072 665.132H255.775L256.053 665.177L256.926 665.304L329.907 665.428C331.955 665.428 333.785 663.669 333.792 661.32L333.919 589.975C332.276 590.187 330.574 590.339 328.799 590.339H328.775C325.757 590.318 323.382 589.657 321.389 589.32C318.831 589.702 316.25 589.975 313.584 589.975C302.915 589.975 291.566 586.588 280.484 579.072L279.23 578.308C276.886 576.615 274.801 574.497 273.159 572.04C268.985 565.793 266.1 559.423 264.246 553.109C263.677 551.143 263.246 549.17 262.876 547.225C262.191 543.624 261.762 540.063 261.762 536.571C261.762 520.441 268.723 505.973 279.768 496.128Z" fill="#ACC484"/>
</svg>
