<svg width="327" height="417" viewBox="0 0 327 417" fill="none" xmlns="http://www.w3.org/2000/svg">
<path d="M301.699 269.968C301.484 269.736 280.386 246.722 271.619 228.173C273.364 204.151 270.028 179.373 262.193 158.252C254.75 138.159 242.882 121.901 227.87 111.251C207.938 97.092 174.794 88.2124 152.446 85.9607L148.172 85.5131C140.309 84.6775 132.152 83.8137 123.734 84.1479C65.0351 86.5498 22.1752 118.556 9.0895 169.769C-5.46056 226.737 29.5224 275.284 52.6292 299.92C53.343 310.111 56.807 363.27 53.2637 394.121C52.8275 397.908 52.2893 401.383 51.6237 404.377C51.2158 406.209 51.9183 409.815 53.2637 410.951H190.652C190.777 410.959 190.879 411.013 191.006 411.013C191.27 411.013 191.536 410.996 191.808 410.951C194.459 410.506 196.252 408.002 195.81 405.348C195.799 405.255 194.453 395.653 201.993 387.224C211.337 376.783 230.535 371.991 257.573 373.461C257.803 373.481 258.021 373.467 258.253 373.45C258.672 373.41 268.606 372.453 274.061 363.873C278.496 356.891 278.545 347.329 274.194 335.47C274.035 335.034 273.798 334.6 273.526 334.232C272.313 332.584 270.891 329.474 271.381 327.919C271.668 327.015 273.016 326.392 274.092 326.035C275.432 325.585 276.508 324.585 277.049 323.279C277.584 321.979 277.536 320.509 276.907 319.24L274.579 314.581C277.684 314.213 280.876 313.275 282.969 311.165C284.736 309.383 285.558 307.01 285.303 304.432L285.34 294.236C291.268 291.568 302.991 284.812 302.991 273.265C302.985 272.038 302.527 270.86 301.699 269.968Z" fill="#D0D5A9"/>
<path d="M191.001 416.666C190.76 416.666 190.471 416.644 190.182 416.604H53.258C51.9239 416.604 50.6324 416.131 49.6127 415.273C46.1997 412.395 45.3783 406.382 46.0977 403.15C46.6868 400.508 47.2052 397.253 47.6414 393.475C50.9298 364.848 48.0464 316.11 47.1202 302.305C23.7529 276.933 -11.3888 227.077 3.60597 168.369C17.3431 114.605 62.1631 81.0067 123.499 78.5C132.376 78.1459 140.745 79.0382 148.767 79.8936L153.032 80.3382C176.08 82.6608 210.371 91.886 231.144 106.643C247.082 117.95 259.655 135.117 267.495 156.286C275.426 177.668 278.916 202.741 277.361 227.057C286.05 244.465 305.662 265.926 305.863 266.147C307.645 268.07 308.639 270.605 308.639 273.267C308.639 285.13 299.955 291.95 292.979 297.431C289.285 300.331 285.798 303.073 283.717 306.18C278.157 314.476 278.958 326.276 279.734 337.682C280.669 351.464 281.638 365.72 271.161 374.537C262.777 381.59 252.24 382.182 242.162 382.182H242.16C240.871 382.182 239.571 382.17 238.265 382.159C226.343 382.057 214.399 381.828 206.202 390.993C200.577 397.281 201.373 404.314 201.41 404.612C202.333 410.138 198.453 415.567 192.734 416.528C192.131 416.624 191.564 416.666 191.001 416.666ZM57.2064 405.294H190.131C189.896 402.009 189.955 392.192 197.773 383.451C208.193 371.804 222.146 370.827 234.402 370.827C235.724 370.827 237.044 370.838 238.358 370.849C239.63 370.861 240.899 370.869 242.157 370.872C252.155 370.872 258.919 370.056 263.876 365.881C269.965 360.758 269.263 350.416 268.447 338.444C267.586 325.76 266.609 311.383 274.319 299.881C277.397 295.284 281.765 291.851 285.988 288.534C292.899 283.104 297.182 279.442 297.323 273.562C294.854 270.849 275.166 248.92 266.501 230.586C266.085 229.705 265.904 228.734 265.974 227.759C267.66 204.548 264.434 180.56 256.888 160.212C249.838 141.181 238.673 125.846 224.593 115.859C205.494 102.289 173.508 93.7638 151.871 91.5828L147.574 91.1353C139.927 90.3224 132.024 89.4728 123.949 89.7956C67.8874 92.0871 26.9931 122.507 14.5589 171.165C0.60363 225.808 34.9975 272.862 56.7447 296.048C57.6341 296.997 58.1694 298.224 58.2601 299.521C58.9908 309.947 62.4577 363.533 58.869 394.763C58.4073 398.853 57.8607 402.3 57.2064 405.294Z" fill="black"/>
<path d="M61.1321 252.07C61.1321 252.07 68.7824 280.972 94.5743 277.465C95.9593 277.272 97.3981 276.995 98.8908 276.61C98.8908 276.61 102.666 292.667 122.02 274.247V288.883C122.02 288.883 132.404 294.08 139.012 288.883C139.012 288.883 143.258 253.486 156.003 244.983C156.003 244.983 200.373 263.867 201.313 216.189C201.313 216.189 240.491 214.775 247.564 188.816C249.178 182.922 248.592 175.94 247.612 170.038C239.942 123.852 185.106 100.157 143.606 99.4343C132.183 99.2304 120.723 100.174 109.524 102.451C96.5116 105.093 83.6837 109.753 72.7846 117.463C61.251 125.626 54.0482 133.355 47.1088 145.823C41.0871 156.632 37.3484 168.644 35.1702 180.792C35.1702 180.792 23.3733 253.483 61.1321 252.07Z" fill="white"/>
<path d="M131.667 294.017C126.031 294.017 120.964 291.516 120.751 291.406L119.191 290.624V280.428C114.427 284.112 110.24 285.917 106.493 285.917C101.576 285.917 98.6161 282.75 97.1433 279.898C96.4182 280.04 95.6874 280.161 94.9623 280.263C93.3903 280.479 91.8325 280.586 90.3257 280.586C70.0372 280.586 61.4182 261.385 59.0871 254.902C51.8361 254.67 45.8315 251.812 41.2288 246.402C24.9821 227.306 32.0716 182.248 32.3804 180.339C34.8219 166.735 38.943 154.674 44.639 144.447C51.5982 131.944 59.0304 123.733 71.1503 115.154C81.4093 107.897 94.1296 102.691 108.963 99.6805C120.04 97.4287 131.769 96.3893 143.657 96.6074C183.061 97.2928 242.233 120.383 250.402 169.573C251.764 177.773 251.73 184.31 250.291 189.558C243.785 213.433 213.317 217.99 204.044 218.828C202.489 247.175 184.951 251.495 174.425 251.495C166.585 251.495 159.493 249.28 156.451 248.181C147.617 255.746 142.912 280.102 141.816 289.214L141.677 290.375L140.757 291.097C138.298 293.035 135.239 294.017 131.667 294.017ZM124.844 287.002C126.425 287.591 129.008 288.364 131.667 288.364C133.497 288.364 135.075 287.99 136.372 287.256C137.298 280.583 142.06 250.886 154.431 242.632L155.698 241.788L157.102 242.383C157.185 242.417 165.396 245.847 174.423 245.847C189.998 245.847 198.093 235.848 198.484 216.135L198.538 213.464L201.209 213.365C201.58 213.351 238.395 211.705 244.836 188.077C246.054 183.63 246.048 177.883 244.822 170.505C237.186 124.518 181.008 102.915 143.558 102.266C132.067 102.048 120.763 103.057 110.087 105.226C96.0301 108.081 84.0292 112.976 74.4161 119.776C62.9052 127.925 56.1726 135.358 49.5787 147.203C44.1858 156.884 40.2743 168.352 37.9517 181.296C37.8894 181.69 30.9755 225.638 45.534 242.745C49.4654 247.365 54.4873 249.503 61.0245 249.248L63.2762 249.163L63.8597 251.344C64.1174 252.307 70.411 274.935 90.32 274.935C91.5719 274.935 92.8748 274.845 94.1891 274.666C95.5203 274.482 96.8629 274.216 98.1771 273.873L100.976 273.148L101.638 275.964C101.746 276.386 102.831 280.269 106.49 280.269C108.816 280.269 113.059 278.87 120.066 272.199L124.841 267.653V287.002H124.844Z" fill="black"/>
<path d="M199.096 62.3383H198.98C195.394 62.276 192.541 59.3189 192.601 55.7359L193.402 9.2052C193.468 5.61937 196.26 2.89171 200.005 2.82373C203.591 2.88888 206.449 5.84597 206.389 9.42613L205.582 55.954C205.52 59.5059 202.625 62.3383 199.096 62.3383Z" fill="#F2ED7C"/>
<path d="M199.096 65.1651H198.98C196.442 65.1198 194.119 64.1114 192.389 62.3214C190.658 60.5313 189.732 58.1747 189.774 55.6878L190.576 9.15717C190.669 4.03052 194.7 0.0934693 199.951 0C205.188 0.0934693 209.298 4.34493 209.213 9.47725L208.406 56.0051C208.318 61.0581 204.14 65.1651 199.096 65.1651ZM199.954 5.65348C197.841 5.69314 196.269 7.17726 196.232 9.25908L195.43 55.787C195.413 56.7642 195.779 57.6904 196.459 58.3957C197.138 59.101 198.05 59.4975 199.03 59.5145L199.098 62.3412V59.5145C201.081 59.5145 202.724 57.8971 202.761 55.9088L203.568 9.38372C203.596 7.36138 201.979 5.68747 199.954 5.65348Z" fill="#020202"/>
<path d="M278.845 117.531C276.76 117.531 274.715 116.531 273.463 114.675C271.452 111.701 272.234 107.668 275.205 105.66L313.768 79.6046C316.751 77.6021 320.779 78.3896 322.781 81.3494C324.789 84.3234 324.01 88.3567 321.039 90.3649L282.479 116.42C281.36 117.171 280.091 117.531 278.845 117.531Z" fill="#F2ED7C"/>
<path d="M278.845 120.36C275.741 120.36 272.854 118.828 271.121 116.262C269.725 114.2 269.218 111.716 269.691 109.274C270.164 106.83 271.56 104.717 273.622 103.323L312.182 77.2682C313.737 76.2258 315.539 75.6735 317.394 75.6735C320.498 75.6735 323.384 77.2059 325.118 79.772C327.996 84.0348 326.871 89.8384 322.617 92.7133L284.056 118.766C282.502 119.808 280.7 120.36 278.845 120.36ZM317.394 81.3269C316.663 81.3269 315.952 81.5451 315.34 81.9558L276.786 108.005C275.976 108.552 275.426 109.385 275.239 110.345C275.052 111.305 275.253 112.282 275.803 113.095C276.891 114.707 279.25 115.18 280.898 114.075L319.45 88.0256C321.124 86.8955 321.563 84.6126 320.43 82.9358C319.753 81.9275 318.617 81.3269 317.394 81.3269Z" fill="#020202"/>
<path d="M244.763 87.0992C243.817 87.0992 242.856 86.8923 241.947 86.4533C238.718 84.8983 237.361 81.0208 238.919 77.789L263.904 25.9617C265.453 22.7299 269.345 21.3733 272.565 22.9311C275.797 24.4889 277.151 28.3693 275.596 31.5982L250.611 83.4283C249.495 85.7424 247.176 87.0992 244.763 87.0992Z" fill="#F2ED7C"/>
<path d="M244.763 89.926C243.355 89.926 241.995 89.6145 240.721 88.9999C238.48 87.9207 236.792 86.0315 235.971 83.6834C235.149 81.3353 235.294 78.8032 236.376 76.5599L261.36 24.7326C262.896 21.5291 266.192 19.4558 269.758 19.4558C271.166 19.4558 272.526 19.7674 273.797 20.3848C278.423 22.6168 280.374 28.1966 278.145 32.8248L253.161 84.655C251.614 87.8556 248.32 89.926 244.763 89.926ZM269.758 25.1093C268.356 25.1093 267.059 25.9222 266.456 27.1798L241.468 79.0128C241.044 79.8965 240.987 80.8906 241.31 81.814C241.633 82.7374 242.296 83.4795 243.176 83.9043C244.952 84.7597 247.221 83.9525 248.068 82.1964L273.053 30.3663C273.931 28.5479 273.16 26.3527 271.342 25.4747C270.838 25.2339 270.305 25.1093 269.758 25.1093Z" fill="#020202"/>
</svg>
