<svg width="402" height="310" viewBox="0 0 402 310" fill="none" xmlns="http://www.w3.org/2000/svg">
<path d="M267.512 5.65381H5.65356V303.73H267.512V5.65381Z" fill="white"/>
<path d="M269.676 309.383H3.48951C1.56064 309.383 0 307.82 0 305.894V3.48951C0 1.56064 1.56347 0 3.48951 0H269.676C271.605 0 273.166 1.56347 273.166 3.48951V305.894C273.168 307.82 271.605 309.383 269.676 309.383ZM16.8416 298.074H256.321C259.378 298.074 261.856 295.595 261.856 292.539V16.8416C261.856 13.7854 259.378 11.307 256.321 11.307H16.8416C13.7854 11.307 11.307 13.7854 11.307 16.8416V292.539C11.307 295.595 13.7854 298.074 16.8416 298.074Z" fill="#020202"/>
<path d="M219.364 106.915H53.8015C50.6802 106.915 48.1481 104.383 48.1481 101.261C48.1481 98.1401 50.6802 95.6078 53.8015 95.6078H219.364C222.485 95.6078 225.018 98.1401 225.018 101.261C225.018 104.383 222.488 106.915 219.364 106.915Z" fill="black"/>
<path d="M219.364 175.221H53.8015C50.6802 175.221 48.1481 172.689 48.1481 169.568C48.1481 166.447 50.6802 163.914 53.8015 163.914H219.364C222.485 163.914 225.018 166.447 225.018 169.568C225.018 172.689 222.488 175.221 219.364 175.221Z" fill="black"/>
<path d="M219.364 242.434H53.8015C50.6802 242.434 48.1481 239.902 48.1481 236.781C48.1481 233.66 50.6802 231.127 53.8015 231.127H219.364C222.485 231.127 225.018 233.66 225.018 236.781C225.018 239.902 222.488 242.434 219.364 242.434Z" fill="black"/>
<path d="M214.812 153.162L207.502 195.515L208.125 195.405L249.852 188.205V188.049L232.665 170.868L214.963 153.162H214.812Z" fill="white"/>
<path d="M204.032 199.002L212.433 150.336H215.985L216.965 151.163L252.682 186.874V190.429L250.336 190.989L204.032 199.002ZM216.693 158.89L210.969 192.046L244.128 186.325L216.693 158.89Z" fill="black"/>
<path d="M207.496 195.515L208.136 195.396L217.254 193.688L213.549 189.984L209.201 185.641L207.496 195.515Z" fill="#1E1D21"/>
<path d="M214.676 153.029L232.594 170.944L249.852 188.202L314.318 123.739L297.057 106.481L279.145 88.5665L214.676 153.029Z" fill="#B889BE"/>
<path d="M243.539 189.887L212.991 159.343C209.504 155.856 209.504 150.205 212.991 146.719L272.831 86.8811C276.318 83.3944 281.969 83.3944 285.455 86.8811L316 117.429C319.487 120.915 319.487 126.566 316 130.053L256.163 189.887C252.679 193.374 247.025 193.374 243.539 189.887ZM225.08 155.437L247.444 177.801C248.773 179.13 250.928 179.13 252.257 177.801L303.911 126.15C305.24 124.821 305.24 122.666 303.911 121.337L281.547 98.9726C280.218 97.6442 278.063 97.6442 276.734 98.9726L225.077 150.627C223.751 151.953 223.751 154.108 225.08 155.437Z" fill="black"/>
<path d="M353.32 14.3914L348.139 19.572L343.5 24.2115L289.418 78.2905L307.333 96.2055L324.593 113.466L378.67 59.3842L383.315 54.7363L387.657 50.4028C387.657 50.4028 405.77 33.1619 388.195 15.3376C388.133 15.2725 388.096 15.213 388.034 15.1535C370.142 -2.73598 353.32 14.3914 353.32 14.3914Z" fill="#F2ED7C"/>
<path d="M324.593 119.12C323.095 119.12 321.656 118.522 320.597 117.463L285.421 82.2872C284.362 81.2279 283.764 79.789 283.764 78.2907C283.764 76.7923 284.362 75.3536 285.421 74.2943L349.323 10.3953C349.649 10.061 358.347 1.3457 370.634 1.3457C378.324 1.3457 385.524 4.64549 392.033 11.1544C392.121 11.245 392.24 11.3724 392.347 11.4942C398.565 17.8615 401.643 24.9028 401.522 32.4512C401.321 45.061 391.957 54.119 391.557 54.4986L328.593 117.463C327.531 118.522 326.092 119.12 324.593 119.12ZM301.05 81.9276L320.957 101.834C322.965 103.842 326.222 103.842 328.23 101.834L383.663 46.4035C383.805 46.2675 390.133 40.0307 390.218 32.1991C390.266 27.7636 388.232 23.427 384.17 19.3115C384.1 19.2379 384.003 19.1331 383.912 19.0311C379.579 14.774 375.141 12.6554 370.634 12.6554C363.174 12.6554 357.39 18.3202 357.333 18.3797L301.054 74.6568C299.043 76.6621 299.042 79.9166 301.05 81.9276Z" fill="black"/>
<path d="M279.145 88.5668L297.057 106.482L314.318 123.739L321.045 117.007L303.787 99.7462L285.875 81.8341L279.145 88.5668Z" fill="white"/>
<path d="M314.318 127.741L275.145 88.5664L285.875 77.8372L325.041 117.006L314.318 127.741ZM283.141 88.5664L314.315 119.743L317.045 117.009L285.872 85.833L283.141 88.5664Z" fill="black"/>
<path d="M337.17 10.783L337.107 10.7235C335.422 9.03537 332.686 9.03537 331.003 10.7235L285.685 56.0392C284.002 57.7216 284.002 60.4577 285.685 62.1402L285.747 62.2024C287.432 63.8877 290.169 63.8877 291.851 62.2024L337.17 16.8839C338.855 15.1986 338.855 12.4711 337.17 10.783Z" fill="#1E1D21"/>
</svg>
